<?xml version="1.0" ?><!DOCTYPE svg  PUBLIC '-//W3C//DTD SVG 1.1//EN'  'http://www.w3.org/Graphics/SVG/1.1/DTD/svg11.dtd'><svg height="512px" style="enable-background:new 0 0 512 512;" version="1.1" viewBox="0 0 512 512" width="512px" xml:space="preserve" xmlns="http://www.w3.org/2000/svg" xmlns:xlink="http://www.w3.org/1999/xlink"><g id="_x31_73"><g><g><g><g><g><g><path d="M143.642,418.994c-0.292-0.063-0.188,0.698-0.231,0.836         C143.906,419.655,143.628,418.797,143.642,418.994z" style="fill:#FFFFF;"/><polygon points="148.331,417.067 148.272,417.385 148.897,416.564        " style="fill:#FFFFF;"/><path d="M152.699,416.576c-0.598-1.23-1.542,0.438-2.385,0.059l-0.161-0.279l-0.238,1.079         C150.859,417.171,151.986,416.315,152.699,416.576z" style="fill:#FFFFF;"/><path d="M155.542,418.932c-0.245-0.468,0.438-0.527-0.591-0.048c0.064,0.044,0.086,0.072,0.125,0.105         C155.172,418.964,155.307,418.939,155.542,418.932z" style="fill:#FFFFF;"/><path d="M155.076,418.989C154.606,419.116,155.466,419.349,155.076,418.989L155.076,418.989z" style="fill:#FFFFF;"/><path d="M157.206,418.261l-0.528,0.576c0.192,0.265,0.767,0.208,0.605,0.465         C157.878,418.92,157.674,418.66,157.206,418.261z" style="fill:#FFFFF;"/><path d="M157.58,417.207l-0.274,0.257C157.389,417.573,157.484,417.599,157.58,417.207z" style="fill:#FFFFF;"/><path d="M156.716,418.005l0.589-0.541c-0.136-0.186-0.235-0.594-0.278,0.21         C156.999,417.286,156.947,417.676,156.716,418.005z" style="fill:#FFFFF;"/><path d="M156.292,417.895c-0.404-0.199-0.88-0.296-0.357-0.854         C154.805,417.439,155.142,418.312,156.292,417.895z" style="fill:#FFFFF;"/><path d="M152.713,415.212l-0.499-0.309l-0.319,0.485C152.055,415.15,152.803,415.614,152.713,415.212z         " style="fill:#FFFFF;"/><path d="M161.228,417.93c-0.039-0.276-0.41-0.646-0.551-0.974l-0.365,0.428         C160.595,417.507,161.083,417.548,161.228,417.93z" style="fill:#FFFFF;"/><path d="M160.677,416.956l0.534-0.653C160.603,416.425,160.556,416.674,160.677,416.956z" style="fill:#FFFFF;"/><path d="M157.36,415.775l-0.874,1.216c0,0,0.273-0.318,0.546-0.637         c0.266-0.321,0.533-0.643,0.533-0.643L157.36,415.775z" style="fill:#FFFFF;"/><polygon points="163.827,417.156 163.644,417.888 164.02,416.746        " style="fill:#FFFFF;"/><path d="M165.486,416.455c-0.098,0.604,0.695,0.695,0.511,1.114c0.433-0.266,0.667-0.842,0.869-1.356         C166.575,416.568,166.15,416.667,165.486,416.455z" style="fill:#FFFFF;"/><path d="M167.229,415.424c-0.136,0.191-0.241,0.484-0.364,0.789         C167.02,416.024,167.147,415.778,167.229,415.424z" style="fill:#FFFFF;"/><path d="M162.38,416.088c0.102,0.143,0.332,0.528,0.765,0.582l-0.501-0.655         C162.563,416.037,162.472,416.063,162.38,416.088z" style="fill:#FFFFF;"/><path d="M162.626,415.994l0.017,0.021c0.289-0.071,0.489-0.12,0.575-0.142         C163.143,415.889,162.965,415.925,162.626,415.994z" style="fill:#FFFFF;"/><path d="M162.313,416.105c0.025-0.006,0.042-0.011,0.067-0.018         C162.332,416.023,162.309,416.004,162.313,416.105z" style="fill:#FFFFF;"/><path d="M159.258,416.025c0.281-0.525,0.944-1.188,0.003-1.62         C159.126,414.993,159.67,415.237,159.258,416.025z" style="fill:#FFFFF;"/><path d="M161.703,415.28l-0.746,0.037c0.072,0.192,0.284,0.442,0.153,0.706L161.703,415.28z" style="fill:#FFFFF;"/><polygon points="161.966,414.938 161.703,415.28 161.979,415.262        " style="fill:#FFFFF;"/><path d="M165.775,415.211c0.177-0.432,0.494-0.573,0.836-0.776c-0.445,0.021-0.882,0.089-1.266,0.239         C165.378,414.923,165.361,415.398,165.775,415.211z" style="fill:#FFFFF;"/><path d="M164.226,415.548c0.017-0.021,0.037-0.046,0.052-0.065         C164.215,415.436,164.175,415.427,164.226,415.548z" style="fill:#FFFFF;"/><path d="M170.155,412.895c-0.041-0.035-0.076-0.066-0.117-0.102c0.015,0.042,0.026,0.074,0.044,0.127         L170.155,412.895z" style="fill:#FFFFF;"/><path d="M165.229,414.563c-0.346-0.029-0.454,0.216-0.543,0.5c0.197-0.149,0.411-0.29,0.66-0.39         C165.332,414.561,165.311,414.491,165.229,414.563z" style="fill:#FFFFF;"/><path d="M168.103,414.673c-0.217-0.085-0.445-0.142-0.676-0.184         C167.669,414.654,168.128,414.884,168.103,414.673z" style="fill:#FFFFF;"/><path d="M164.451,415.65c-0.011,0.017-0.02,0.035-0.034,0.048         C164.571,415.821,164.532,415.748,164.451,415.65z" style="fill:#FFFFF;"/><path d="M164.451,415.65c0.117-0.161,0.173-0.384,0.236-0.587c-0.16,0.122-0.3,0.26-0.409,0.419         C164.333,415.521,164.398,415.587,164.451,415.65z" style="fill:#FFFFF;"/><path d="M168.986,407.911c0.28,0.666-0.133,1.619-1.071,1.196c-0.367,0.768,0.994,2.75,2.124,3.686         c-0.117-0.296-0.233-0.553,0.222-1.249c-0.398-0.234-1.814-0.165-1.552-1.004c0.674-0.724,0.79-0.091,1.364,0.051         c-0.733-0.639,0.465-1.69-0.321-2.775l-0.492,0.765C169.157,408.402,169.263,407.982,168.986,407.911z" style="fill:#FFFFF;"/><path d="M168.753,413.302l-0.237,0.202c0.362-0.023,0.704,0.147,1.35,0.466         c0.31-0.533,0.288-0.818,0.217-1.05l-1.379,0.521L168.753,413.302z" style="fill:#FFFFF;"/><path d="M167.285,414.033c-0.08-0.81,0.43-1.394-0.295-2.006c-0.764,0.374-0.299,0.831-0.647,1.342         c1.217-0.707-0.209,0.557,0.898,0.585c-0.206,0.229-0.422,0.361-0.629,0.48c0.271-0.008,0.544,0.009,0.815,0.055         c-0.02-0.014-0.033-0.022-0.049-0.033l-0.005,0.005l-0.003-0.012c-0.094-0.067-0.135-0.115-0.05-0.088         c0-0.012,0.015-0.021,0.021-0.026c-0.033-0.104-0.045-0.202-0.054-0.298c0.441-0.006,0.138,0.164,0.054,0.298         c0.01,0.037,0.014,0.075,0.028,0.114l0.009,0.007c0,0,0.287-0.235,0.574-0.472c0.282-0.24,0.564-0.48,0.564-0.48         C168.196,413.52,167.869,413.703,167.285,414.033z" style="fill:#FFFFF;"/><path d="M159.5,412.591c0.059,0.055,0.072,0.109,0.091,0.163         C159.646,412.637,159.659,412.564,159.5,412.591z" style="fill:#FFFFF;"/><path d="M160.157,412.89c-0.062,0.132-0.052,0.457-0.379,0.47c-0.328-0.148-0.102-0.362-0.187-0.605         c-0.122,0.254-0.492,0.72,0.193,0.928l0.062-0.13c0.591,0.104,1.557,0.838,1.498,0.969         C160.981,413.892,160.697,413.451,160.157,412.89z" style="fill:#FFFFF;"/><path d="M163.633,413.368c0,0,0.236-0.186,0.473-0.371c0.232-0.19,0.465-0.381,0.465-0.381         l-0.774-0.434l0.167,0.373C163.305,412.619,163.605,413.046,163.633,413.368z" style="fill:#FFFFF;"/><polygon points="170.445,413.189 170.657,414.005 170.772,412.653        " style="fill:#FFFFF;"/><polygon points="171.787,412.419 172.061,413.088 172.23,412.516        " style="fill:#FFFFF;"/><path d="M379.879,98.467l-4.685,0.205C377.411,98.608,378.835,98.54,379.879,98.467z" style="fill:#FFFFF;"/><path d="M413.786,98.516l0.831-0.355C413.045,98.357,412.401,98.501,413.786,98.516z" style="fill:#FFFFF;"/><path d="M384.174,236.229c-0.673,6.823-1.716,14.444-0.906,13.62l0.79-2.094         C383.916,242.987,384.004,239.334,384.174,236.229z" style="fill:#FFFFF;"/><path d="M424.518,364.717c-0.16,0.633-0.364,1.281-0.553,1.923c-0.024,1.666-0.134,3.242-0.26,4.656         C424.06,369.325,424.366,367.077,424.518,364.717z" style="fill:#FFFFF;"/><path d="M421.747,359.745c0,0,0.074-0.525,0.146-1.318c0.042-0.396,0.084-0.859,0.116-1.356         c0.009-0.125,0.018-0.251,0.027-0.379l0.014-0.193l0.008-0.098l0.003-0.049l0.002-0.024v-0.003         c-0.164,0.452,1.437-3.948,0.759-2.087v-0.007v-0.012l-0.001-0.013v-0.003c-2.219-2.188,3.022,3.916,2.482-1.161         l-0.002-0.006l-0.009-0.024l-0.018-0.05l-0.034-0.098l-0.071-0.195l-0.15-0.388c-0.409-1.033-0.963-1.922-1.347-2.45         c-0.388-0.534-0.573-0.808-0.573-0.808c0.309,0.497,0.981,1.226,1.609,2.524c0.155,0.32,0.307,0.671,0.449,1.047l0.105,0.288         l0.025,0.073l0.013,0.037l0.001,0.002c0,0.983,0.001-2.196,0.001,2.204c-5.029-2.054-1.395-0.567-2.517-1.025v0.002v0.01         l0.001,0.019v0.005l-0.769,2.115v0.002l-0.001,0.01l-0.001,0.019l-0.003,0.037l-0.005,0.074         c-0.013,0.198-0.025,0.401-0.039,0.608C421.923,357.9,421.849,358.79,421.747,359.745z" style="fill:#FFFFF;"/><path d="M194.691,99.304l-5.463,0.804C197.777,100.104,194.014,99.699,194.691,99.304z" style="fill:#FFFFF;"/><path d="M205.969,216.547c0.309-5.889,0.438-10.572,0.477-14.689         C205.993,208.952,205.312,214.673,205.969,216.547z" style="fill:#FFFFF;"/><path d="M393.222,90.088c-2.867,0.143-4.092,0.304-4.008,0.479         C392.165,90.433,393.833,90.282,393.222,90.088z" style="fill:#FFFFF;"/><path d="M206.443,184.856c-0.062,1.038-0.123,2.055-0.186,3.112c0.132,4.304,0.239,8.633,0.188,13.891         C206.784,196.62,206.991,190.622,206.443,184.856z" style="fill:#FFFFF;"/><path d="M127.574,407.689c0.02,0.043,0.05,0.069,0.065,0.118         C127.68,407.707,127.64,407.69,127.574,407.689z" style="fill:#FFFFF;"/><path d="M139.261,417.887c-0.144,0.04-0.373,0.026-0.59,0.023         C138.771,417.971,138.949,417.977,139.261,417.887z" style="fill:#FFFFF;"/><path d="M206.604,345.35C206.656,349.743,206.692,346.045,206.604,345.35L206.604,345.35z" style="fill:#FFFFF;"/><path d="M202.538,366.982c0.072-0.966,0.081-1.702-0.09-1.84         C202.589,365.537,202.597,366.177,202.538,366.982z" style="fill:#FFFFF;"/><path d="M232.183,167.216c0.129,0.001,0.232,0.001,0.38,0.002         C231.255,167.064,231.48,167.094,232.183,167.216z" style="fill:#FFFFF;"/><path d="M206.246,351.959c0.097-1.649,0.178-3.55,0.235-5.618         C206.418,347.25,206.342,348.957,206.246,351.959z" style="fill:#FFFFF;"/><path d="M206.619,351.07c-0.03,1.514-0.054,2.706-0.077,3.84         C206.674,355.464,206.757,354.975,206.619,351.07z" style="fill:#FFFFF;"/><path d="M206.563,339.229c0.012,2.513-0.025,4.857-0.082,7.112c0.053-0.863,0.098-1.224,0.124-0.991         C206.596,344.061,206.583,342.244,206.563,339.229z" style="fill:#FFFFF;"/><path d="M94.572,329.216c-0.154,0.233-0.331,0.502-0.499,0.756c-0.848,1.958-1.011,2.534-0.869,2.221         C93.363,331.886,93.858,330.699,94.572,329.216z" style="fill:#FFFFF;"/><path d="M338.592,309.766c0.157-0.113,0.241-0.174,0.383-0.276c-0.169,0.093-0.382,0.21-0.535,0.294         L338.592,309.766z" style="fill:#FFFFF;"/><path d="M327.604,319.495c1.773-2.612,3.503-4.43,5.241-5.912c1.741-1.484,3.513-2.63,5.595-3.8         c0,0-1.34,0.154-2.695,0.388c-1.353,0.229-2.718,0.538-2.718,0.538c0.001,0-1.611,2.108-2.954,4.316         C328.7,317.222,327.604,319.495,327.604,319.495z" style="fill:#FFFFF;"/><path d="M298.688,98.694l11.081,0.709c-13.375,1.167-23.052,0.765-12.646,1.763         c1.565-2.473,43.068-0.254,44.608-2.723l7.306,0.52c-2.094-0.024-2.429,0.121-4.496,0.097         c14.206,1.184,10.553-1.788,28.856-1.435c6.378,0.189,10.83,0.548,6.481,0.841l14.212-0.611         c4.137,0.049,3.125,0.478-0.992,0.431l21.68-0.198l-0.161,0.072c0.193-0.023,0.402-0.048,0.624-0.075         c0.185-0.02,0.294-0.05,0.458-0.064c0.307-0.041,0.645-0.043,1.007-0.021c0.724,0.045,1.544,0.248,2.318,0.638         c1.585,0.753,2.774,2.32,3.21,3.471c0.183,0.978,0.099,1.351,0.068,1.368c-0.043,0.019-0.104-0.308-0.213-0.708         c-0.2-0.815-0.779-1.835-0.716-1.337c0.001,0,0.261,0.43,0.494,1.151c0.116,0.36,0.22,0.794,0.274,1.274         c0.025,0.194,0.045,0.578,0.062,0.952c0.019,0.369,0.037,0.745,0.056,1.12c0.15,3,0.3,6.001,0.3,6.001         c-0.32,2.445-0.636,1.181-0.859-1.731c-0.112-1.456-0.201-3.324-0.257-5.346c-0.007-0.245-0.014-0.493-0.021-0.743         c-0.011-0.158-0.018-0.316-0.038-0.474c-0.039-0.314-0.089-0.629-0.175-0.937c-0.161-0.617-0.415-1.212-0.742-1.754         c0.191,0.89,0.18,1.602,0.141,2.2c-0.018,0.299-0.057,0.573-0.094,0.831l-0.025,0.212l-0.027,0.358         c-0.013,0.237-0.026,0.469-0.039,0.699c-0.08,1.837,0.03,3.488,0.172,5.544c0.284,4.113,0.696,9.849-0.024,21.945         l-0.314-11.333c-1.401,7.306-0.894,16.152-1.769,28.966c0.457-3.041,2.204-25.655,2.819-12.627         c-0.187,3.672-0.275,8.511,0.223,15.54c-0.879,0.064-0.663,6.926-0.613,15.514l-1.164-0.586         c0.335,9.284,0.928,8.549,1.452,14.013c-0.114,10.347-1.017,12.492-1.776,14.928c-0.185,16.57,1.446-11.442,1.666,8.169         c-0.445,13.781,0.03,23.458,0.727,39.944c-0.4,9.645-0.712-1.688-1.045,1.771l0.929,8.55         c-0.022,2.093-0.308,1.417-0.452,1.076c0.36,7.203,1.164,0.593,1.48,11.919c1.282,3.054-1.874,23.252-0.418,37.271         c-0.331,3.453-0.713-1.668-1.164-0.611c0.955,19.23,0.694,16.486,1.979,32.277c0,0-0.19,3.363-0.382,6.727         c-0.047,0.8-0.094,1.6-0.138,2.35c-0.035,0.556-0.031,1.002,0.031,1.348c0.06,0.346,0.176,0.603,0.277,0.79         c0.103,0.186,0.18,0.296,0.18,0.296c-0.394-0.601-0.371-1.033-0.322-1.382c0.061-0.339,0.175-0.529,0.287-0.524         c0.24,0.006,0.464,0.76,0.908,2.104c0.22,0.678,0.525,1.537,0.794,2.646c0.134,0.552,0.252,1.16,0.346,1.808         c0.047,0.323,0.088,0.656,0.124,0.996l0.049,0.516l0.011,0.13l0.006,0.065l0.001,0.017l0.001,0.008         c0.146-0.064-1.266,0.596-0.668,0.32l0.004,0.031c-0.09,0.252,0.204-0.552-0.202,0.566l0.001,0.008l0.001,0.015l0.002,0.029         l0.005,0.06l0.01,0.119c0.22,2.549,0.255,5.403,0.063,8.162c0.463-1.698,0.815-3.303,1.066-4.738         c0.137-0.717,0.225-1.393,0.318-2.016c0.037-0.312,0.072-0.609,0.105-0.894c0.016-0.142,0.03-0.28,0.045-0.415l0.021-0.199         l0.01-0.098l0.003-0.024v-0.006l0.001-0.003c0.601-0.082-0.819,0.109-0.675,0.088l-0.004-0.005l-0.033-0.039l-0.066-0.078         l-0.004-0.005c-0.002-0.172-0.002,1.483-0.002,0.782v-0.003l0.001-0.006l0.001-0.011c0,0-0.001,0.005-0.001,0.014         l-0.001,0.008v0.001c0-0.352,0,0.786,0-0.787l0.002,0.002l0.006,0.007l0.013,0.015c0.018,0.021,0.038,0.045,0.062,0.072         l0.018,0.021l0.01,0.011c-0.608,0.082,0.831-0.107,0.683-0.088v0.001v0.001v0.016l0.001,0.034         c0,0.025,0.001,0.054,0.002,0.087c0.003,0.131,0.007,0.323,0.013,0.567c0.017,0.49,0.021,1.189,0.014,2.03         c-0.016,1.68-0.125,3.924-0.384,6.159c-0.474,4.483-1.709,8.852-1.709,8.852c-0.876,2.017-0.613,0.158-0.326-2.774         c-0.219,1.195-0.452,2.326-0.652,3.206c-1.216,2.96-1.817,3.53-1.865,2.875c-0.069-0.663,0.315-2.584,0.629-4.803         c0.819-1.957,1.544-3.95,2.148-5.935c0.094-4.404-0.615-8.382-1.322-7.53c0.077,1.1,0.049,3.228-0.233,5.546         c-0.032-1.112-0.124-1.82-0.299-1.335c-0.207,0.549-0.141,2.32-0.445,5.092c0,0-0.525,0.871-1.071,1.713         c-0.557,0.841-1.133,1.65-1.132,1.65l0.229,1.027c0,0-0.441,1.296-1.242,3.179c-0.792,1.886-1.995,4.335-3.394,6.661         c-1.391,2.333-2.982,4.529-4.251,6.107c-1.27,1.58-2.193,2.563-2.193,2.563c-4.491,6.276-9.829,11.648-17.333,16.063         c-3.761,2.175-8.093,4.068-13.169,5.339c-5.065,1.266-10.896,1.92-17.418,1.347c3.275-0.15,3.617-0.604,3.233-1.014         c-0.39-0.436-1.5-0.939-1.282-1.494c3.345,0.867,8.33,0.799,13.826-0.396c5.513-1.169,11.462-3.492,17.142-6.497         c-2.987,1.54-4.279,1.854-4.575,1.809c-0.304-0.06,0.351-0.529,1.067-0.977c0,0-1.236,0.687-3.179,1.555         c-1.938,0.872-4.597,1.896-7.346,2.673c-2.746,0.784-5.569,1.323-7.709,1.599c-2.14,0.28-3.583,0.365-3.583,0.364         c0.507-0.952-4.908-0.439-10.687-1.88c1.026,0.623,0.494,0.871-1.061,0.785c-1.551-0.086-4.115-0.532-7.018-1.425         c-2.903-0.882-6.128-2.214-9.06-3.755c-2.935-1.539-5.577-3.258-7.538-4.602c-0.042-0.43,0.467-0.388,2.144,0.559         c1.7,0.906,4.529,2.814,9.676,5.223c-2.72-1.589-4.915-2.878-6.915-4c-1.996-1.12-3.78-2.094-5.536-3.144         c-1.749-1.057-3.471-2.196-5.197-3.749c-1.725-1.548-3.472-3.505-5.1-6.2c1.693,2.256,2.652,3.454,3.62,4.077         c-1.201-1.127-2.695-2.81-4.104-4.729c-1.407-1.92-2.721-4.076-3.708-6.03c-1.976-3.921-2.745-6.912-1.821-5.256         c0,0,0.271,0.641,0.556,1.275c0.295,0.63,0.589,1.261,0.589,1.261c-1.957-4.189-3.862-9.762-4.728-15.899         c-0.909-6.125-0.763-12.765,0.334-18.737c1.062-5.989,3.046-11.279,4.846-15.155c1.793-3.889,3.318-6.43,3.41-7.238         c0.245-0.029,0.097,3.093-0.197,4.182c0,0,0.197-0.477,0.576-1.302c0.379-0.826,0.94-2.001,1.697-3.38         c1.493-2.765,3.817-6.343,6.647-9.625c2.808-3.293,6.098-6.264,8.766-8.28c1.33-1.014,2.484-1.816,3.31-2.353         c0.819-0.548,1.305-0.837,1.305-0.837c-1.161,1.239,1.327,1.359,2.201,2.149c0.448,0.393,0.495,0.898-0.401,1.754         c-0.89,0.865-2.755,2.016-5.917,4.116c1.918-1.037,4.106-2.101,6.897-3.271c2.799-1.145,6.196-2.431,10.661-3.541         c-2.908,0.339-7.785,0.028-3.78-1.239c2.896-0.357,4.837-0.431,6.343-0.487c1.505-0.055,2.58-0.054,3.732-0.067         c1.153,0.012,2.388,0.01,4.2,0.142c1.813,0.145,4.24,0.37,7.567,1.137c-2.159-0.417-2.017-0.979-0.368-1.345         c0.819-0.171,2.019-0.27,3.429-0.16c0.345,0.026,0.729,0.072,1.054,0.125c0.212,0.038,0.427,0.077,0.646,0.117         c0.247,0.039,0.504,0.084,0.742,0.105c0.958,0.112,2.063,0.124,3.149-0.058c-0.656,0.258-0.42,0.731-0.4,1.24         c0.004,0.251-0.056,0.516-0.38,0.733c-0.314,0.223-0.938,0.407-1.937,0.367c0,0,0.104,0.002,0.299,0.006         c0.206-0.007,0.504,0.002,0.886-0.033c0.76-0.055,1.848-0.207,3.043-0.662c1.193-0.446,2.485-1.223,3.548-2.352         c1.068-1.12,1.878-2.584,2.284-4.127c0.209-0.771,0.319-1.563,0.348-2.271c0.02-0.361,0.012-0.715-0.001-1.061l-0.033-0.512         l-0.045-0.417c-0.12-1.095-0.232-2.116-0.328-2.992c-0.191-1.752-0.319-2.92-0.319-2.92c0.368,4.665,1.734,0.825,2.313-3.356         c-0.4,1.939,0.038-16.151-0.165-21.132l-0.475,7.918c0.31-21.093-2.878-20.835-2.771-41.761         c0.424,2.532,2.603,6.256,2.86-4.388c-1.049-4.877-5.042-21.596-5.849-40.112l0.599-3.55c0,0-0.043-0.888-0.106-2.22         c-0.054-1.06-0.4-2.434-1.132-3.596c-0.713-1.174-1.762-2.079-2.62-2.575c-0.863-0.501-1.497-0.669-1.497-0.669         c0.821,0.11,1.855,0.422,2.922,1.118c1.059,0.691,2.141,1.787,2.863,3.311c0.366,0.764,0.626,1.607,0.762,2.568         c0.142,1.011,0.288,2.05,0.437,3.113c0.287,2.125,0.587,4.34,0.891,6.591c1.188,9.006,2.341,18.601,2.986,25.378         c0.475-7.892,0.706-2.197,0.652-14.019c0.562-4.175,0.852,6.442,0.886,9.921l0.362-27.523         c-0.307,0.306-0.536-0.856-0.725-2.756c-0.052-0.569-0.109-1.193-0.17-1.859c-0.095-0.805-0.261-1.652-0.517-2.505         c-0.503-1.707-1.371-3.429-2.54-4.896c-1.161-1.473-2.612-2.686-4.117-3.529c-1.505-0.848-3.049-1.333-4.362-1.538         c-1.307-0.216-2.415-0.157-3.052-0.062c-0.507,0.1-0.739,0.211-0.608,0.339c0,0,0.117-0.005,0.336-0.014         c0.115-0.004,0.258-0.009,0.426-0.015c0.209,0,0.45-0.009,0.721,0.002c1.076,0.034,2.65,0.208,4.404,0.894         c1.747,0.678,3.656,1.875,5.229,3.657c1.574,1.769,2.782,4.136,3.221,6.695c0.114,0.637,0.173,1.283,0.2,1.927         c0.02,0.468,0.04,0.934,0.06,1.396c0.039,0.92,0.077,1.825,0.114,2.701c0.074,1.751,0.144,3.386,0.203,4.788         c0.119,2.803,0.198,4.671,0.198,4.671c-0.61,0.605-1.479-3.716-2.167-10.626c-0.08-0.864-0.163-1.769-0.249-2.708         c-0.064-1.052-0.274-2.269-0.67-3.378c-0.777-2.254-2.288-4.364-4.367-5.843c-2.042-1.495-4.746-2.311-7.323-2.186         c-2.37,0.043-4.792,0.055-7.229,0.028c-4.961-0.487,3.711-2.178,3.305-2.586c-2.531,0.421-18.51,0.804-20.301,0.506         l8.272-0.655c-10.855-0.46-17.717,1.622-30.764,0.454c-4.503-0.078-13.445-1.576-14.226-0.851         c7.345,1.396,8.781,5.714,3.886,6.764c-1.579-0.094-23.645-1.335-28.786-2.024c-7.416-1.095,11.133-2.609,4.819-3.549         c-0.271,0.334-4.368,0.746-6.076,0.879c-4.729-0.286,1.959-1.036-8.317-0.884c-1.713,1.241-20.899-0.105-4.857,1.048         c-10.051,0.354-10.682-0.254-22.485-0.201c3.756,0.801-10.598,2.729-20.668,3.082c0.593-0.315-1.669-0.727-2.764-0.914         c-5.151-0.028-9.705-0.084-13.94-0.153c-2.117-0.038-4.155-0.075-6.146-0.111c-2.031-0.114-4.12,0.37-5.868,1.398         c-1.757,1.02-3.216,2.551-4.146,4.399c-0.463,0.924-0.795,1.925-0.975,2.967c-0.084,0.522-0.135,1.052-0.146,1.587         c-0.008,0.501-0.015,1.006-0.023,1.514c-0.056,4.061-0.093,8.354-0.096,13.157c-0.3,1.772-0.664,11.043-1.198,7.093         c0.22,2.764,0.641,5.303,0.67,11.23c-1.072,11.468-0.167-13.214-1.456-4.471c0.721,0.747,0.995,15.327,1.445,23.767         c1.113-2.596,0.213-19.502-0.236-27.955c1.535-0.039,3.144,14.676,3.854,34.758c0.382,15.958-0.992,6.919-0.774,9.689         c-0.269,29.978,2.682,25.539,1.574,50.434c-0.979,9.876-1.947,0.444-2.653,2.635c-0.371-13.001,0.622-19.959,0.582-28.772         l-0.463,10.849c-0.325-4.136-0.572-12.814-0.288-17.543c-0.879,8.278-0.169,50.646-0.981,73.774         c0.329,4.111,0.668,11.204,1.061,7.848l-0.136-7.319c0.789-6.726,1.091,13.774,1.459,4.511         c0.146,2.454,0.295,4.983,0.45,7.611c0.073,1.314,0.146,2.653,0.222,4.021c0.034,0.684,0.067,1.374,0.102,2.072         c0.021,0.717,0.059,1.459,0.053,2.201c0.031,5.939-0.943,12.517-3.683,19.221c0,0-0.503,0.529-1.007,1.06         c-0.513,0.513-1.025,1.024-1.025,1.024c0.204-0.075,1.296-2.144,2.229-4.786c0.967-2.628,1.701-5.827,1.884-7.83         c-0.258,2.976-1.945,8.264-4.427,13.181c-1.213,2.474-2.604,4.859-3.867,6.989c-1.271,2.126-2.423,3.994-3.123,5.508         c0,0,1.677-1.861,3.195-3.876c1.521-2.01,2.872-4.161,2.873-4.161c-2.15,4.675-5.107,9.747-9.158,14.42         c-4.027,4.672-9.155,8.919-15,11.883c2.875-0.961,3.5-1.443,4.489-2.077c0.976-0.679,2.356-1.44,6.425-3.928         c-3.724,1.905,3.177-3.093,8.038-9.233c2.481-3.013,4.496-6.191,5.382-7.937c0.871-1.762,0.792-1.968-1.206,0.583         c3.095-3.669,5.018-7.435,6.631-11.667c1.583-4.259,2.907-9.002,4.076-15.295c-0.201,0.183-0.476,1.286-0.554,0.954         c-0.045-0.165-0.015-0.687,0.048-1.86c0.037-0.587,0.078-1.338,0.115-2.29c0.037-0.953,0.057-2.131,0.078-3.379         c-0.107-0.464-0.244-1.56-0.324-2.255c0.012-0.315,0.017-0.426,0.027-0.696c-0.016,0.206-0.027,0.361-0.043,0.567         c-0.055-0.444-0.066-0.483-0.015,0.213c-0.081,1.224-0.169,2.332-0.263,3.234c-0.098,0.918-0.209,1.698-0.323,2.114         c-0.175-1.416-0.344-3.365-0.465-5.702c-0.123-2.337-0.212-5.032-0.29-7.74c-0.153-5.417-0.256-10.887-0.475-13.65         c0.175-6.102,0.422,2.551,0.815-0.78l-0.654-8.259c0.818-0.818,1.358-16.21,1.837-1.836l0.037-12.938         c0.458-7.615,0.641-18.091,0.297-24.553c0.177-6.102-0.905-15.411-0.265-10.096l-0.506-20.288l0.205-0.187         c0.103-20.018-1.354-41.208,0.122-64.092c-0.051-1.685-0.102-3.384-0.155-5.16c-0.038-1.756-0.077-3.589-0.119-5.562         c-0.013-1.127,0.329-2.349,1.173-3.413c0.828-1.06,2.165-1.912,3.732-2.061c0,0,0.329,0.129,0.622,0.304         c0.087,0.081,0.449,0.172,0.634,0.238c0.206,0.066,0.343,0.111,0.343,0.111c8.652-0.247,25.983,0.707,29.701-0.029         c9.335,1.902,41.993,0.415,57.211,0.752l0.573-0.923c10.476,0.052,20.52-0.209,33.521-0.58l-0.799-0.816         c5.605-0.335,12.81-0.19,20.829,0.028c4.01,0.106,8.224,0.218,12.543,0.332c2.159,0.037,4.346,0.074,6.546,0.111         c2.129,0.011,4.272,0.023,6.417,0.034c-0.104,0.037-0.189,0.067-0.384,0.09c-0.244,0.027-0.531,0.049-0.852,0.065         c-0.641,0.033-1.415,0.046-2.252,0.044c-1.672-0.005-3.592-0.072-5.184-0.167c2.648,0.23,5.332,0.382,8.04,0.474         c0.409,0.012,0.483,0.023,0.695,0.048c0.184,0.021,0.365,0.052,0.543,0.093c0.358,0.079,0.706,0.19,1.043,0.334         c0.672,0.288,1.299,0.706,1.829,1.231c0.528,0.526,0.956,1.153,1.247,1.833c0.146,0.34,0.258,0.694,0.334,1.059         c0.038,0.182,0.066,0.367,0.087,0.554c0.015,0.093,0.013,0.188,0.023,0.283c0.009,0.083,0.01,0.319,0.016,0.471         c0.09,2.75,0.179,5.497,0.268,8.229c0.398,10.927,0.858,21.607,0.187,31.213c0.298,4.787,0.196,8.253-0.009,11.61         c-0.002-0.445-0.018-0.844-0.042-1.186c-0.003,0.49-0.007,1.218-0.011,1.965c-0.139,2.113-0.28,4.292-0.435,6.649         c0.198-2.003,0.361-3.923,0.438-5.592c0.017,3.692,0.118,9.291,0.322,14.78l-0.876,2.338         c0.009,0.445,0.016,0.805,0.024,1.269c-0.323,5.386,0.415,4.33,1.075,1.456c0.144,2.764,0.316,5.296,0.528,7.261         c-1.415,4.375,0.477,14.399-1.032,20.372c0.184,0.925,0.311,3.111,0.421,5.917c0.049,1.403,0.103,2.961,0.159,4.594         c0.026,0.815,0.053,1.65,0.08,2.493l0.039,1.229c0.012,0.288,0.003,0.567-0.02,0.838c-0.057,0.557-0.136,0.938-0.314,1.38         c-0.168,0.425-0.414,0.818-0.717,1.151c-0.604,0.679-1.437,1.071-2.229,1.238c-0.402,0.082-0.77,0.122-1.206,0.122         c-0.194-0.003-0.38-0.004-0.557-0.006c-0.101-0.006-0.252-0.032-0.37-0.046c-0.046-0.003-0.164-0.026-0.146-0.012         l-0.229-0.036c-1.079-0.13-1.807-0.089-2.228,0.026c-0.151-0.218-1.833-0.66,1.271-0.058         c-3.188-0.781-6.345-1.156-9.443-1.272c-3.085-0.103-6.13,0.079-8.931,0.625c0,0-0.701-0.212-1.411-0.387         c-0.71-0.185-1.433-0.354-1.433-0.354s-3.442,0.898-6.693,2.222c-1.631,0.648-3.217,1.379-4.387,1.952         c-1.167,0.585-1.925,1.002-1.925,1.001c-4.007,1.271-6.729,2.559-7.647,2.736c-0.893,0.225-0.07-0.769,3.588-3.052         c-4.518,2.559-7.396,4.765-9.573,6.511c-2.171,1.758-3.619,3.106-4.968,4.414c-1.338,1.318-2.567,2.614-4.066,4.478         c-1.484,1.869-3.279,4.297-5.327,8.067l-0.144-1.093c-1.713,2.578-3.458,6.221-4.74,9.678c-1.31,3.454-2.184,6.7-2.938,8.417         c-1.201,3.218-2.665,9.153-2.603,16.815c0.034,3.82,0.457,8.059,1.455,12.475c1.008,4.411,2.576,9.001,4.806,13.465         c2.21,4.471,5.075,8.806,8.466,12.762c3.402,3.945,7.325,7.518,11.595,10.498c4.26,2.997,8.85,5.409,13.486,7.219         c4.642,1.802,9.324,3.012,13.789,3.7c-3.303-1.564,0.75-0.533,5.94-0.092c2.597,0.214,5.484,0.256,7.793,0.044         c2.31-0.203,4.021-0.64,4.297-1.097c2.125,0.165,7.147-0.737,1.486,0.966c4.542-1.013,8.413-2.29,11.831-3.672         c3.416-1.388,6.387-2.876,9.072-4.494c5.345-3.248,9.691-6.929,13.418-12.138c0.888-0.624,0.377,0.237-0.192,1.106         c-0.576,0.859-1.215,1.719-0.451,1.13c0.993-1.145,3.6-4.723,4.945-6.14c1.364-1.369-1.231,2.501-3.091,4.854         c3.176-3.631,5.159-6.829,6.515-9.396c1.339-2.583,2.04-4.561,2.425-6.05c0.737-2.993,0.294-4.028-0.138-4.911         c1.976-4.229,2.938-7.652,3.462-10.788c0.495-3.146,0.534-6.038,0.147-9.385c0.062-0.402,0.128-0.838,0.194-1.27l0.024-0.163         l0.001-0.002c1.636-0.081-2.229,0.108-1.834,0.085l-0.014-0.016l-0.027-0.032l-0.055-0.064l-0.007-0.008         c-0.002-1.739-0.006,2.359-0.005,1.938l0.001-0.004l0.002-0.009l0.004-0.017l0.016-0.067l0.066-0.267         c0.05-0.178,0.1-0.351,0.146-0.516c0.203-0.659,0.45-1.216,0.542-1.3c0.099-0.091,0.007,0.347-0.345,1.5         c-0.081,0.276-0.177,0.604-0.288,0.984c-0.026,0.093-0.053,0.188-0.08,0.287l-0.041,0.148l-0.02,0.076l-0.003,0.01         c0.001,2.482-0.004-3.376,0.003-2.767l0.013,0.016l0.052,0.061l0.025,0.03l0.014,0.016c-0.574,0.026,5.055-0.166,2.672-0.083         v0.02c0.005,0.209,0.011,0.432,0.016,0.668c0.022,0.947,0.017,2.125-0.063,3.565c0.062-0.809,0.156-2.035,0.188-3.565         c0.006-0.191,0.011-0.388,0.016-0.588l0.002-0.075l0.001-0.02c-1.263,0.037,2.826-0.095-2.831,0.08l-0.024-0.03l-0.051-0.059         l-0.025-0.03c-0.013-0.651-0.005,5.551-0.006,2.922l0.043-0.144l0.093-0.295c0.129-0.398,0.278-0.823,0.454-1.281         c0.343-0.916,0.816-1.982,1.276-3.292c0.462-1.302,0.835-2.847,1.004-4.359c0.089-0.758,0.138-1.506,0.165-2.232         c0.009-0.357,0.018-0.716,0.026-1.077l0.008-0.868c0.014-2.167,0.026-4.4,0.04-6.59c0.02-8.76-0.114-16.824-0.696-17.14         c0.295-1.939,0.086-8.652-0.048-10.283c0.053-8.708,0.075-12.438,0.11-18.097l0,0c-0.01-2.208-0.024-5.568-0.047-10.656         l-0.19,3.781c-1.402-5.386-0.313-11.339-0.481-22.336l0.145,0.315c1.012-25.217-0.485-10.888,0.67-35.763l-0.873,1.353         c-1.877-2.319,1.107-22.041,0.39-36.479l-0.499,5.212c-0.643-7.886,2.554-22.04,2.788-29.958         c0.163-1.727,0.262,2.725,0.383,5.135c1.107-20.732-1.144-2.687-1.409-18.136c0.616-2.848,1.568,3.672,1.683-6.726         c0.5-5.18-2.002-30.158-0.819-44.345c-0.477,3.107-0.945,6.27-1.311-0.987c-0.044-1.769-0.435-3.709-1.322-5.56         c-0.882-1.848-2.246-3.606-4.059-4.961c-1.799-1.363-4.058-2.313-6.463-2.576c-0.3-0.038-0.602-0.057-0.904-0.072         l-0.72-0.033l-1.367-0.06l-2.739-0.113c-7.301-0.283-14.468-0.4-19.436,0.349c-1.398-0.13-1.927-0.254-1.984-0.373         c-8.407,0.387-27.323,0.643-32.387,1.455c-7.771-3.016-52.27,1.466-52.083-1.314l-25.86,0.149l0.676-0.284         c-16.531-0.184-22.375,0.482-28.187,1.15c-3.82-0.189-1.031-0.449-0.715-0.595c-24.154-0.561-26.557-0.442-46.806,0.942         l-2.106-0.902c-2.745,0.262-11.475-0.092-22.479-0.379c-1.376-0.034-2.788-0.068-4.228-0.104         c-1.934-0.033-3.938,0.372-5.772,1.213c-3.674,1.664-6.639,5.141-7.547,9.303c-0.237,1.006-0.338,2.147-0.329,3.092         l0.006,2.325c0.016,1.55,0.032,3.099,0.047,4.64c0.049,3.083,0.134,6.134,0.265,9.095c-0.102-0.232-0.277-0.721-0.405-2.603         c1.059,26.653-2.502,63.808,0.783,73.575l0.81,17.588c0.256-22.755,1.426,3.389,1.972-5.973         c0.193,8.949-0.99,23.136-1.16,12.138l0.165-1.72c-1.712-4.04-0.607,28.277-1.773,27.665         c0.021,11.194-0.022,22.318-0.101,33.361c-0.047,5.522-0.093,11.023-0.14,16.505c-0.01,0.66-0.003,1.467-0.039,1.835         c-0.037,0.461-0.127,0.898-0.237,1.229c-0.225,0.702-0.652,1.34-1.23,1.785c-0.574,0.453-1.294,0.694-2.011,0.732         c-0.36,0.017-0.701-0.005-1.152-0.086c-0.248-0.049-0.26-0.047-0.675-0.164l-0.533-0.149l-0.574-0.146         c-2.951-0.692-5.783-1.02-8.648-1.201c-2.848-0.166-5.71-0.164-8.564,0.05c-5.704,0.409-11.334,1.638-16.67,3.6         c-10.69,3.909-20.119,10.857-27.028,19.645c0,0,1.055-0.812,2.14-1.56c1.079-0.757,2.183-1.451,2.183-1.451         s-2.634,2.774-4.86,5.885c-2.268,3.08-4.091,6.45-4.091,6.45c-1.087,1.691-1.888,2.815-1.86,2.249         c0.074-0.537,0.832-2.891,3.892-7.521c-1.96,2.198-4.152,6.387-5.401,10.152c-1.288,3.762-1.734,7.007-1.646,7.188         c-0.802,2.552-1.248,4.381-1.553,5.596c-0.308,1.215-0.475,1.819-0.591,1.965c-0.212,0.297-0.18-1.237,0.063-3.233         c0.422-4.006,2.18-9.719,1.098-6.526c0,0-0.68,2.184-1.187,4.411c-0.521,2.225-0.858,4.481-0.858,4.481s0.125-0.5,0.25-1         c0.135-0.497,0.27-0.994,0.27-0.994c-0.429,3.675-0.342,5.694-0.327,8.427c0.019,1.367,0.041,2.915,0.133,4.941         c0.093,2.025,0.242,4.534,0.7,7.8c0.521,4.14,0.676,5.221,0.583,5.694c-0.062,0.471-0.28,0.321,0.135,1.936         c-0.046,0.002-0.017,0.281,0.2,1.031c0.21,0.752,0.595,1.98,1.327,3.848c0,0,0.409,1.159,1.117,2.863         c0.707,1.703,1.756,3.932,2.952,6.082c2.343,4.339,5.429,8.197,5.429,8.197s-1.019-1.707-1.912-3.462         c-0.902-1.752-1.675-3.546-1.675-3.546c2.417,3.554,5.237,7.104,6.873,8.796c0.802,0.859,1.289,1.265,1.224,1.027         c-0.055-0.245-0.669-1.136-1.848-3.008c0.85,1.384,2.26,3.251,4.22,5.34c0.985,1.039,2.105,2.133,3.362,3.239         c0.631,0.551,1.293,1.106,1.989,1.66c0.316,0.247,0.638,0.497,0.962,0.75l0.06,0.081c0.323,0.435,0.808,0.81,1.298,1.157         c0.993,0.678,2.052,1.162,2.14,1.548c1.109-0.221,1.785,0.204,2.621,0.771c-0.112-0.313,0.343-1.412,1.012-0.873         c-1.448,1.991,0.873,1.681,0.727,3.553c-0.055-1.309,2.381,0.836,2.191-1.093c0.57,0.483-0.348,0.845-0.085,1.601         c1.959-0.142,3.307,2.098,5.5,2.514c0.134-0.292-0.043-0.873,0.543-1.172c0,0,0.142,0.469,0.283,0.938         c0.149,0.469,0.298,0.938,0.298,0.938c0.463-0.015,0.924-1.637,1.345-0.354c-0.029-0.289-0.066-0.725,0.234-0.741         c1.789,1.349,3.994,1.559,6.13,1.808c2.154,0.252,4.237,0.555,6.283,2.189c-0.536-0.671-0.138-0.696,0.306-0.681         c-0.276-0.174,0.067-0.788,0.043-1.226c0.558,0.438,1.126,0.882,1.708,1.312c0.378-1.186,1.929-0.01,2.137-1.17l-0.564,0.2         c0.754-1.34-0.947-3.046-0.754-4.792c-0.417,0.761-0.912,0.167-1.444-0.361c-0.539-0.518-1.108-0.979-1.84,0.066         c-0.242-0.379,0.29-0.539,0.18-0.954c-0.384,0.721-0.791,0.826-1.459,0.413l0.102-0.174c-2.002-0.073-2.75-0.934-4.794-1.856         l-0.019,0.878c-0.445-0.215-0.484-0.5-0.653-0.758c-0.825,1.158,1.294,0.357,0.504,1.66         c-0.252-1.818-3.329-0.819-3.207-2.867c-0.692-0.218-0.069,1.021-0.768,0.8l-0.033-0.572l-0.377,0.613         c-0.433-0.245-0.458-0.968-0.336-1.407c0.093,0.087,0.348-0.021,0.477-0.025c-0.389-0.786-1.705-0.32-1.838-0.595l0.548,0.54         c-2.061-0.141-4.018-1.703-6.216-1.528l-0.039,0.432c-1.677,0.035-0.886-0.907-2.488-1.35l0.098-0.058         c-0.479,0.208-0.967,0.179-1.337-0.085c0.59-0.217-0.223-1.186,0.506-1.383c-1.788-0.091-0.99,0.161-2.698,0.912l0.14-0.708         c-0.631,0.323-0.832,0.585-1.634,0.28c0.884-0.115,0.116-1.15,1.164-1.384c-0.313-1.086-1.035-1.112-1.624-1.178         c-0.294-0.029-0.555-0.061-0.704-0.223c-0.073-0.083-0.118-0.199-0.125-0.362l0.002-0.132l0.007-0.073l-0.389-0.37         c-0.517-0.502-1.01-1.021-1.471-1.566c-2.468-1.42-2.727-1.296-1.8-0.242c0.464,0.522,1.241,1.249,2.221,2.053         c0.241,0.205,0.503,0.404,0.771,0.613l0.202,0.156l0.01,0.017l0.022,0.032c0.031,0.042,0.065,0.082,0.102,0.121         c0.293,0.308,0.738,0.476,0.439,0.516c-0.021,0.355-0.354,0.55-0.731,0.592c-0.189,0.022-0.385,0.003-0.556-0.052         c-0.042-0.014-0.084-0.029-0.123-0.048c-0.208-0.147-0.416-0.294-0.621-0.439c-0.241-0.18-0.479-0.358-0.715-0.534         c-0.94-0.708-1.794-1.433-2.545-2.103c-3.069-2.716-5.106-5.66-7.604-9.938c-1.226-2.157-2.558-4.667-3.959-7.814         c-1.396-3.146-2.883-6.93-4.142-11.704c0.504,1.9,0.684,1.986,1.281,3.847c-0.958-3.562-1.931-7.026-2.529-10.814         c-0.589-3.771-0.79-7.889,0.037-12.354c-0.309-2.581,0.222-5.524,0.823-7.95c0.59-2.438,1.21-4.384,0.786-5.33         c0,0-0.384,1.091-0.854,2.758c-0.473,1.666-1,3.916-1.367,6.191c-0.367,2.276-0.569,4.573-0.644,6.297         c-0.081,1.725-0.058,2.876-0.058,2.876c-0.104-5.204,0.071-10.361,1.502-16.216c1.46-5.792,4.209-12.428,10.089-19.011         c-0.318,0.624-1.222,2.006-2.187,3.662c-0.972,1.651-1.995,3.578-2.756,5.176c2.814-4.164,5.059-8.376,9.044-11.85         c0.003,1.04-3.904,5.02-7.315,10.834c-1.716,2.886-3.299,6.203-4.416,9.523c-1.132,3.314-1.788,6.62-1.974,9.356         c0.372-1.272,0.767-3.173,1.282-5.201c0.504-2.031,1.147-4.187,1.805-5.984c0.656-1.798,1.304-3.244,1.714-3.883         c0.403-0.645,0.537-0.488,0.282,0.901c0.815-3.953,3.434-8.212,7.151-12.304c3.734-4.112,8.485-8.052,13.925-12.05         l-0.324,1.193c1.705-1.209,5.415-3.617,9.118-4.886c0,0-1.566,0.862-3.051,1.817c-1.492,0.949-2.896,1.991-2.896,1.991         c4.508-2.861,9.572-4.338,14.577-5.001c5.021-0.668,10.025-0.558,15.086-0.366c-5.291-0.435-8.275-0.189-9.848-0.187         c-1.586,0.034-1.817-0.062-1.667-0.26c0.293-0.353,2.168-1.076-2.445-0.753c3.304-0.676,6.089-0.898,8.424-0.934         c2.348-0.037,4.245,0.118,5.821,0.339c1.577,0.227,2.842,0.529,3.924,0.872c0.537,0.171,1.044,0.357,1.459,0.544l0.134,0.066         c0.011,0.005,0.013,0.009,0.018,0.012c-0.062,0.213,0.126-0.422,0,0.001l-0.007-0.001c0.04,0.012-0.099-0.027,0.086,0.025         l0.006,0.003l0.025,0.011l0.099,0.042c0.146,0.059,0.23,0.106,0.428,0.175l0.645,0.204l0.589,0.161         c1.585,0.396,3.607,0.543,5.721-0.032c2.107-0.58,4.502-1.941,6.236-4.682c0.426-0.683,0.805-1.444,1.111-2.283         c0.152-0.422,0.284-0.858,0.396-1.311c0.102-0.432,0.189-0.857,0.251-1.298c0.134-0.853,0.153-1.905,0.167-2.407         c0.015-0.633,0.03-1.297,0.046-1.993c0.052-2.784,0.06-6.093,0.008-10.09c0.122,4.329-0.519,16.255-0.919,9.483         c0.178-6.089,0.51-14.129,0.962-17.865c-0.179-21.19-0.888,3.253-1.418-5.767c1.052-7.216-0.428-10.405-0.766-19.695         l0.878-0.064c0.563-24.147-1.83-6.404-1.149-28.141l1.218,9.187l-0.314-11.333l0.999,2.338         c-0.74-12.331-0.549-16.171-0.269-28.251c-0.619,2.809-1.593-1.578-1.621-12.273c0.522-7.293,0.834,4.084,0.709-11.075         c0.549,3.421,1.239,7.171,0.43,13.768c0.287,0.676,0.551,3.376,0.834,4.072c0.599-7.854,0.136-19.74,0.129-25.229         c-0.033,2.113-0.08,4.639-0.206,5.934l-1.216-21.976c0.33-3.459,0.594-0.715,0.854,2.004         c-0.095-4.452-0.498-7.531-0.573-14.077c0.713,1.694,1.45,1.289,1.786,10.553l-0.792-20.939         c0.31-1.398,0.852-10.746,1.115-8.027c0.052-1.451,0.07-2.985,0.062-4.587c-0.01-0.801-0.02-1.62-0.031-2.454         c-0.007-0.362-0.015-0.727-0.022-1.095c-0.01-0.179,0.002-0.355,0.013-0.535c0.063-0.709,0.304-1.452,0.766-2.132         c0.461-0.676,1.137-1.26,1.936-1.611c0.399-0.178,0.829-0.3,1.287-0.352l0.188-0.021l0.361-0.015l0.725-0.029l1.455-0.055         c1.944-0.058,3.905-0.117,5.868-0.175c3.927-0.085,7.867-0.094,11.715,0.044c0.799-0.138,2.403-0.271,5.676-0.373         c14.463,0.161,27.278,1.037,44.422,0.059l9.729,1.279c13.427-0.291-13.169-1.612,9.188-2.094         c15.829-0.409,5.907,1.091,11.461,1.447c7.873-0.646,21.558-1.958,36.099-0.916C306.961,98.789,303.186,98.6,298.688,98.694z          M421.322,137.424c-0.184-3.208-0.752-9.606-0.234-11.951C422.094,129.126,421.612,131.954,421.322,137.424z          M414.724,386.438c0.99-2.102,2.876-5.102,4.709-8.723C418.395,380.458,416.881,383.454,414.724,386.438z M205.89,297.196         c-0.017-0.135-0.029-0.231-0.043-0.341C206.189,289.697,206.055,292.236,205.89,297.196z M205.509,312.06         c0.123,1.495,0.245,1.392,0.367,0.761c-0.222-1.037-0.237-4.375-0.175-8.176C205.471,305.701,205.312,307.621,205.509,312.06         z M84.368,374.503c0,0-0.161-0.752-0.322-1.503c-0.142-0.754-0.284-1.508-0.284-1.508c0.997,3.307,1.47,4.453,1.442,4.611         C85.192,376.256,84.777,375.382,84.368,374.503z" style="fill:#FFFFF;"/><path d="M422.086,360.384c0.201-0.849,0.384-1.08,0.557-1.274         C422.527,357.894,422.402,357.878,422.086,360.384z" style="fill:#FFFFF;"/><path d="M195.702,99.156l-0.502-0.011c-0.277,0.053-0.425,0.106-0.509,0.159L195.702,99.156z" style="fill:#FFFFF;"/><path d="M291.449,163.751c3.06,0.127,4.768,0.287,5.901,0.454         C297.518,163.99,296.126,163.809,291.449,163.751z" style="fill:#FFFFF;"/><path d="M196.171,391.831c0,0,1.419-2.182,2.624-4.482c1.233-2.286,2.25-4.673,2.25-4.672         c-1.033,2.285-1.881,3.765-2.618,4.941c-0.743,1.174-1.375,2.051-2.12,3.067         C196.602,390.607,197.937,389.103,196.171,391.831z" style="fill:#FFFFF;"/><path d="M166.878,409.553c-0.044,0.137-0.181,0.093-0.225,0.23l0.187,0.362         C167.209,409.956,167.336,409.542,166.878,409.553z" style="fill:#FFFFF;"/><path d="M188.066,397.396c-1.067,0.075-5.05,4.825-10.73,8.813c0.34-0.235,0.664-0.46,1.003-0.696         c-0.546,0.999,0.679,0.413,2.681-1.142C183.015,402.816,185.711,400.237,188.066,397.396z" style="fill:#FFFFF;"/><path d="M176.015,407.117c-0.888,0.588-1.801,1.159-2.729,1.694c-0.468,0.261-0.929,0.532-1.401,0.774         l-0.663,0.342l-0.053,0.016c0.035,0.099,0.065,0.147,0.093,0.162c0.014,0.007,0.028,0.006,0.042-0.002         c0.159-0.09,0.348-0.196,0.562-0.317C172.929,409.17,174.448,408.19,176.015,407.117z" style="fill:#FFFFF;"/><path d="M205.999,330.911c-0.19,3.163,0.944,1.984,0.644,3.775         C207.583,338.217,205.504,313.6,205.999,330.911z" style="fill:#FFFFF;"/><path d="M182.442,399.55c0,0,0.595-0.24,1.19-0.479c0.599-0.242,1.187-0.51,1.187-0.51         s0.549-0.796,1.07-1.603c0.516-0.813,1.006-1.63,1.006-1.63s-1.058,1.116-2.172,2.172         C183.607,398.554,182.442,399.55,182.442,399.55z" style="fill:#FFFFF;"/><path d="M202.32,352.378c0,0-0.072,2.671-0.144,5.341c-0.118,2.688-0.497,5.349-0.497,5.349         c0.171-0.145,0.121,1.226-0.089,2.897c0.571-3.275,0.849-6.761,0.869-9.385C202.48,353.985,202.453,352.254,202.32,352.378z" style="fill:#FFFFF;"/><path d="M201.589,365.965c-0.566,3.42-1.436,6.601-1.894,8.479         C200.292,372.664,201.293,368.735,201.589,365.965z" style="fill:#FFFFF;"/><path d="M191.702,388.393c0,0,0.482-0.621,0.931-1.267c0.462-0.637,0.898-1.294,0.898-1.294         s0.975-1.606,1.834-3.279c0.873-1.666,1.618-3.394,1.619-3.394c0,0-1.1,2.436-2.431,4.744         C193.237,386.221,191.702,388.393,191.702,388.393z" style="fill:#FFFFF;"/><path d="M202.496,237.828l-0.261-11.629c-0.313-1.186-0.504,1.984-0.379,6.313         C202.073,235.295,202.194,239.612,202.496,237.828z" style="fill:#FFFFF;"/><path d="M199.999,272.998c0.189-3.144,0.393-3.356,0.692-5.128l-1.13-0.354L199.999,272.998z" style="fill:#FFFFF;"/><path d="M199.734,239.084c-0.313-1.16-0.9-16.88-0.829-2.139         C199.216,238.124,199.477,249.772,199.734,239.084z" style="fill:#FFFFF;"/><polygon points="309.431,166.852 306.473,166.866 306.898,168.719        " style="fill:#FFFFF;"/><path d="M393.623,246.808c0.444-13.781-1.144-3.273-0.589-15.727         c-0.438-3.234-0.452,10.179-0.831,6.861C392.665,246.26,392.404,250.628,393.623,246.808z" style="fill:#FFFFF;"/><path d="M392.203,237.942c-0.073-1.333-0.162-2.745-0.282-4.246         C392.037,236.106,392.126,237.24,392.203,237.942z" style="fill:#FFFFF;"/><polygon points="141.6,418.996 142.25,419.396 141.839,418.768        " style="fill:#FFFFF;"/><path d="M142.873,417.643l0.144,1.184l0.394-1.064C143.265,417.813,142.981,417.91,142.873,417.643z" style="fill:#FFFFF;"/><path d="M418.942,162.042l0.285,0.676c0.307-1.372,0.33-3.447,0.379-7.602L418.942,162.042z" style="fill:#FFFFF;"/><polygon points="368.714,99.623 370.781,99.647 366.916,98.579        " style="fill:#FFFFF;"/><path d="M267.841,100.985c4.117,0.044,8.955-0.194,13.092-0.148         C271.958,101.03,266.727,99.653,267.841,100.985z" style="fill:#FFFFF;"/></g></g></g></g></g></g></g><g id="Layer_1"/></svg>