<svg height="512" width="512" xmlns="http://www.w3.org/2000/svg">
  <g fill="#202020">
    <path d="M395.5 265.506c.017.391.738.122.885.157-.308-.638-1.074-.096-.885-.157zM391.651 260.74l.313-.092s-.271-.062-.541-.123c-.264-.061-.54-.098-.54-.098.008-.014.768.313.768.313zM388.176 257.055c-.207.67.18.868.645 1.098.478.207 1.072.42 1.201.915l-.119.307s.264-.101.526-.202l.534-.19c-.898-.767-2.386-1.209-2.787-1.928zM387.168 253.106c-.058.546-.808.058.582.496-.036-.083-.039-.121-.057-.176-.117-.056-.273-.143-.525-.32zM387.693 253.426c.578.276-.159-.572 0 0zM384.906 252.479l.478-.072c.24-.033.476-.048.476-.048-.039-.359-.762-.68-.411-.786-.951-.067-.842.286-.543.906zM383.876 253.131l.45-.051c-.028-.141-.125-.22-.45.051zM385.306 252.997s-.248.015-.493.037l-.486.046c.047.238-.088.636.433-.005-.199.34.087.042.546-.078zM385.692 253.379c.308.443.729.827-.161.923.706.202 1.097.132 1.157-.1.063-.231-.245-.605-.996-.823zM387.176 257.979l.147.595.601-.085c-.297.042-.528-.853-.748-.51zM379.682 250.849c-.058.274.288.749.335 1.105l.652-.284c-.313-.21-.943-.411-.987-.821zM380.017 251.954s-.235.109-.471.218c-.202.114-.333.236-.343.235.254.023.539-.004.669-.086.136-.083.166-.214.145-.367zM383.335 254.471s.392-.131.783-.262c.399-.125.821-.238.821-.238s-.487.094-.947.203c-.228.057-.454.114-.625.157-.17.054-.282.09-.282.09l.25.05zM377.147 250.807l.366-.639-.651.966zM375.516 250.919c.271-.53-.371-.897-.085-1.223-.443.095-.822.55-1.163.959.362-.228.748-.169 1.248.264zM373.695 251.251c.181-.127.368-.354.572-.596-.192.122-.381.299-.572.596zM378.106 252.27c-.05-.167-.146-.604-.508-.789l.254.777c.078.004.166.008.254.012zM377.861 252.283l-.009-.025c-.275-.021-.466-.037-.548-.043.071.009.239.03.557.068zM378.17 252.273l-.063-.003c.024.077.039.102.063.003zM381.36 253.341c-.571.33-1.554.782-.682 1.483.388-.485-.131-.937.682-1.483zM378.484 253.246l.685.178c-.014-.205-.137-.504.051-.721l-.736.543zM378.149 253.492l.335-.246-.254-.066zM374.867 251.979c-.295.338-.618.367-.983.422.392.153.796.234 1.181.233.053-.244.222-.682-.198-.655zM376.322 252.195c-.021.014-.047.032-.065.044.04.067.072.088.065-.044zM370.287 252.396c.021.048.038.091.059.141.004-.045.008-.083.013-.134l-.072-.007z"/>
    <path d="M375.13 252.779c.294.15.47-.04.638-.28-.22.079-.453.129-.703.135-.025.111-.03.184.065.145zM372.692 251.615c.153.163.327.3.51.427-.15-.245-.456-.629-.51-.427zM376.157 252.025c.015-.013.028-.027.044-.035-.096-.167-.084-.085-.044.035zM376.157 252.025c-.151.112-.271.304-.39.474.179-.061.345-.145.489-.259-.035-.055-.072-.139-.099-.215zM369.198 257.388c.052-.721.825-1.387 1.493-.614.657-.54.228-2.911-.346-4.237-.021.314-.021.605-.697 1.031.237.394 1.501.921.93 1.573-.896.371-.733-.255-1.169-.636.37.898-1.14 1.307-.944 2.627l.785-.465c.015.206-.271.533-.052.721zM371.634 252.61l.278-.089c-.317-.125-.545-.414-.963-.978-.463.352-.559.62-.591.859l1.37.101-.094.107zM373.161 252.518c-.217.784-.886 1.118-.476 1.967.816-.054.572-.655 1.06-.996-1.317.194.379-.437-.573-.881.259-.133.491-.174.712-.207-.237-.096-.467-.214-.682-.359.012.019.021.033.03.048l.006-.002-.001.012c.057.098.075.157.011.101-.004.01-.02.014-.027.016-.009.109-.033.204-.06.296-.382-.162-.06-.204.06-.296.005-.039.015-.075.017-.117l-.005-.01-1.32.43c.278.11.628.088 1.248-.002zM379.794 256.468c-.04-.071-.037-.127-.039-.184-.091.091-.124.155.039.184zM379.243 255.979c.1-.107.163-.43.514-.329.289.25-.014.375-.002.634.19-.199.745-.527.102-.94l-.108.102c-.59-.294-1.23-1.255-1.15-1.368.154.705.291 1.208.644 1.901zM376.164 254.449l-1.099.384.56.679-.028-.408c.625.16.49-.342.567-.655zM370.162 252.005l.146-.828-.635 1.17zM368.733 252.104l.053-.72-.377.435zM253.811 424.385l2.325-.205c-1.1.064-1.807.133-2.325.205zM236.978 424.336l-.413.354c.78-.195 1.1-.339.413-.354zM117.9 258.884c-1.698 1.585-3.179 3.828-3.869 5.751-.379 1.086-.494 1.462-.559 1.829-.055.346.003.518.22.451l.957-.888c.016-.236.117-.744.19-1.115.073-.4.168-.78.29-1.137.21-.731.493-1.378.782-1.979.598-1.184 1.279-2.137 1.989-2.912zM99.087 428.343c-.295-.137-.585-.315-.868-.47-.817-.002-1.646-.089-2.364-.312.942.437 2.068.734 3.232.782zM101.429 425.259l4.465.509c-1.004-.178-2.44-.348-4.465-.509zM345.748 423.548l2.712-.805c-4.244.004-2.376.409-2.712.805zM267.157 252.396c-2.924-.309-5.249-.438-7.292-.477 3.522.453 6.362 1.134 7.292.477zM247.187 432.764c1.423-.143 2.031-.304 1.989-.479-1.465.134-2.293.284-1.989.479zM251.424 251.922c.515.079 1.021.119 1.545.186 2.137-.132 4.286-.239 6.896-.188-2.6-.339-5.578-.546-8.441.002zM389.761 284.503c.029-.039.039-.082.075-.119-.107.008-.105.054-.075.119zM395.286 269.838c.071.123.109.336.155.535.037-.106.002-.27-.155-.535zM331.102 251.76c2.18-.052.344-.088 0 0zM341.707 254.883c-.464.088-.815.202-.87.384.18-.19.483-.311.87-.384zM229.7 256.836c-.064-.001-.115-.001-.189-.002.65.154.538.124.189.002zM334.383 252.119c-.819-.097-1.763-.178-2.789-.235.451.062 1.299.138 2.789.235zM333.941 251.746c.752.03 1.344.054 1.906.077.276-.133.033-.215-1.906-.077zM328.063 251.802c1.247-.012 2.412.025 3.531.082-.429-.053-.607-.098-.492-.124-.641.009-1.542.022-3.039.042zM402.344 344.223c0-.146-.013-.313-.007-.474-.702-2.111-.483-1.168.007.474zM114.052 317.738c.01-.103-.001-.159.005-.252-.026.099-.059.223-.083.313l.078-.061zM113.282 325.556c-.394-3.455.052-5.303.692-7.756l-2.689 2.159 1.997 5.597z"/>
    <path d="M294.118 424.157l-5.502-.709c6.641-1.168 11.444-.766 6.279-1.764-.777 2.473-21.382.254-22.146 2.723l-3.627-.52c1.039.024 1.206-.121 2.232-.097-7.053-1.184-5.239 1.787-14.326 1.436-3.167-.189-5.376-.549-3.217-.842l-7.056.611c-2.053-.049-1.551-.478.493-.431l-10.763.197.08-.072c-1.536.388-5.016.987-6.714 1.242-2.735-.354 1.372-.262.672-.57l-5.959.599c-2.428-.641 2.511-1.262 6.627-1.17-5.565-2.468-4.945.622-16.955-.819l5.626-.314c-3.627-1.401-8.019-.894-14.38-1.769 1.51.457 12.736 2.204 6.269 2.819-1.823-.187-4.225-.275-7.715.222-.032-.879-3.438-.662-7.702-.612l.291-1.165c-4.609.336-4.245.929-6.957 1.453-5.137-.115-6.202-1.017-7.411-1.776-8.227-.185 5.681 1.446-4.056 1.666-6.841-.445-11.646.03-19.831.727-4.788-.4.838-.712-.879-1.045l-4.245.929c-1.04-.022-.704-.308-.534-.451-3.576.359-.294 1.163-5.917 1.479-1.516 1.282-11.543-1.874-18.503-.418-1.714-.331.828-.713.304-1.164-9.547.955-8.185.694-16.024 1.979l-6.678-.764c2.453.438 2.112.914.472 1.388-.82.237-1.965.474-3.249.704-.642.108-1.318.224-2.005.34-.67.104-1.338.166-2.025.144.789.364 1.633.601 2.344.759.714.168 1.335.304 1.834.392 0 0-.547.039-1.369.098-.779.06-2.009.157-3.231-.026-1.223-.173-2.414-.646-3.246-1.116-.42-.231-.756-.454-.975-.633l-.356-.268c-.731-1.059.261-.422 1.768.014-.29-.127-.567-.267-.811-.427-.25-.15-.492-.285-.679-.436-.998-1.395-.818-1.918-.44-1.813.406.085 1.198.649 2.149 1.004.551.762 1.287 1.445 2.144 1.982 1.094-.016 2.077-.341 2.685-.685.71-.366 1.111-.734.883-1.074-.143.033-.318.065-.52.097-.101.014-.208.028-.322.044-.086.009-.178.018-.273.026-.381.054-.814.033-1.268-.011.462-.124.728-.254.562-.398-.187-.165-.853.055-1.915-.11 0 0-.042-.114-.103-.284-.056-.171-.136-.373-.17-.608-.041-.228-.073-.436-.086-.593-.001-.164-.001-.273-.001-.273s-.135.056-.269.11c-.142.051-.284.103-.284.103-.005.005-.066-.088-.177-.239-.126-.139-.25-.38-.412-.647-.294-.562-.515-1.385-.49-2.251.003-.216.006-.43.05-.648.017-.214.059-.428.119-.636.023-.104.046-.206.068-.306.039-.157.078-.312.115-.461.074-.3.145-.583.21-.845.26-1.046.434-1.743.434-1.743.125-8.307-.54-15.667 1.175-28.585.381 3.346 1.411.951 2.492 1.318-1.788 3.295-1.236 10.021-2.638 16.628.73-3.447 1.126-2.593 1.157-1.678l1.003-12.043c.861.427 1.121-2.398 2.038-5.43-2.205 2.026.349-9.047.642-13.967.655-.194 1.068 1.069-.106 6.93 2.487-6.257-.642-8.759 1.621-14.932-.237 1.439-.465 2.198-.258 2.818.051-3.449 1.91-11.582 2.098-9.559l-.239 1.436c1.881-9.503 5.09-29.041 3.815-30.731.213-.061 1.619 1.572 1.827 2.202l-2.155-17.92c1.048 1.729 5.173-3.482 4.53 4.559.583-2.239 1.292-5.012 1.668-9.882-.457 1.518-2.569 3.532-2.319 1.394 2.475-5.558 1.486-3.899 3.981-10.847-.687 2.272-2.29-.667-1.582-4.325.207.627 2.081.048 2.06 1.428l-.418-9.489c-.036 2.345 1.638.702 2.565-1.243-.56.879 1.417-7.893 1.644-10.363l-1.144 3.791c1.054-5.131.791-7.803.5-10.468-.063-.711-.164-1.201-.144-1.847.012-.624.1-1.306.346-2.024.466-1.433 1.506-3.143 3.623-4.531-.415.503-.545 1.49-.113 1.932.459.505 1.301.362 3.107-.321.296-.437.818-1.095 1.738-1.815.479-.355.991-.682 1.753-.987.766-.3 1.595-.608 2.477-.917 3.527-1.23 7.9-2.43 12.496-2.834l1.762.599 7.053-.683c-4.392 1.577-16.715 4.896-23.445 6.188 3.918.475 1.091.706 6.96.652 2.073.562-3.198.852-4.926.886l13.664.362c-.608-1.225 10.449-1.228 9.928-2.247l-14.841 1.269c-.601-1.221 8.582-3.473 18.264-3.257 2.462.487-1.843 2.178-1.641 2.586 1.257-.421 9.189-.805 10.079-.506l-4.107.654c5.389.46 8.796-1.622 15.272-.454 2.236.078 6.675 1.575 7.063.852-3.646-1.396-4.36-5.715-1.929-6.764.784.094 11.738 1.335 14.291 2.024 3.682 1.095-5.527 2.609-2.392 3.549.134-.334 2.168-.746 3.016-.879 2.348.285-.973 1.035 4.129.885.851-1.241 10.376.104 2.412-1.049 4.99-.354 5.303.255 11.163.201-1.865-.802 5.261-2.729 10.26-3.083-.294.315.829.727 1.373.914 10.229.112 15.72.675 25.258.687.879.301 5.482.663 3.521 1.197 1.372-.219 2.633-.64 5.575-.669 5.693 1.072-6.56.166-2.22 1.455.371-.721 7.609-.995 11.799-1.445-1.289-1.113-9.682-.213-13.878.236-.02-1.535 7.286-3.144 17.256-3.854 7.923-.382 3.436.992 4.811.774 14.883.269 12.679-2.682 25.037-1.574 4.903.979.221 1.947 1.309 2.653-6.454.371-9.909-.621-14.284-.582l5.386.463c-2.053.325-6.361.572-8.709.288 4.11.88 25.144.169 36.626.981 2.04-.329 5.562-.668 3.896-1.061l-3.634.136c-3.339-.789 6.839-1.091 2.239-1.459 4.874-.555 10.337-1.427 17.198-.981l1.289 1.116c-.147-.326-4.484-.665-6.413-.325 2.859-.495 10.52 1.511 13.654.049l-4.811-.773c4.894-.561 10.941-1.746 17.022-1.394-2.767-1.102-1.401.126-5.723-1.164 3.746 1.604-15.554-.067-9.537 1.619-4.434-1.497-7.674-.635-13.469-1.911.179.368 2.053.704-3.052.522-.23.107-.774.244-1.119.324-.157-.012-.211-.017-.346-.027.103.016.18.027.281.043-.221.055-.24.066.105.015 1.216.161 2.201.354 2.601.56-2.533.845-10.651.819-13.396 1.256-3.028-.175 1.267-.422-.387-.815l-4.101.654c-.406-.818-8.047-1.358-.911-1.837l-6.423-.037c-3.78-.458-8.981-.641-12.189-.297-3.029-.177-7.65.905-5.012.265l-10.072.506-.093-.205c-9.938-.103-20.457 1.354-31.818-.122-3.346.206-6.803.458-12.4.226l-1.091-.707c-4.295.247-12.899-.707-14.745.029-4.635-1.902-20.848-.415-28.402-.752l-.285.923c-5.201-.052-10.188.209-16.642.58l.397.816c-5.565.67-14.307-.58-23.109-.497.598-.312 2.831-.23 4.411-.042-5.258-.921-10.805-.586-16.23-.188-2.712.199-5.394.413-7.994.494-1.3.041-2.58.047-3.832.002-.626-.023-1.246-.058-1.857-.109-.131-.016-.34-.022-.556-.026l-.626-.017c-.421-.023-.828.01-1.239.027-1.581.407-2.86.875-3.977 1.382-1.129.487-2.106 1.002-3.054 1.557.224-.183.444-.324.613-.473-.279.16-.668.433-1.047.74-1.173.734-2.336 1.617-3.403 2.811.965-.973 2.003-1.717 2.864-2.381-.906.791-1.964 1.892-2.881 3.296-.919 1.397-1.685 3.109-2.058 4.927 0 0-.303.341-.605.683-.316.4-.571.619-.571.619-.029.219-.053.396-.084.625-.779 2.578.039 2.188.934.897-.095 1.376-.141 2.645-.101 3.642-1.767 1.896-.761 7.124-2.758 9.785.409 1.935-1.813 13.589-.539 15.286-.214.057-.447.831-.206-.62-.697 2.963-1.393 5.922-1.433 8.682l-1.319 1.078.333 6.792c-1.363 3.854-2.039 5.43-2.195 1.341-.365 9.745-.86 7.808-.988 16.127l-.641-.518c-.478 2.896-.336 7.688-1.228 9.331-2.48 6.235-5.785 31.991-9.942 48.386 2.653-2.858-2.287 7.559-.782 8.5-.663.881-1.347 3.148-1.307.382-.997 8.563-3.011 12.602-2.668 18.694-.666.884-.408-1.941-.852-1.13-.012.699-.041 2.77-.491 3.6-.445.813-.197-1.313-.179-2.693-.179 1.084-.314 2.051-.411 2.914-.068.697-.232 2.033-.139 3.019.144 2.034.718 3.466 1.343 4.37 1.264 1.811 2.313 1.775 3.096 1.746 1.324 2.56 3.389 3.887 5.239 4.429.945.249 1.871.353 2.778.269.981-.067 1.591-.287 2.431-.516 1.551.475 4.139.972-1.324 1.142 3.074.069 18.775.696 19.088-.467.963.295 4.295.086 5.105-.048 6.896.069 7.503.174 14.274.063l-1.877-.19c2.674-1.403 5.629-.313 11.089-.481l-.157.145c12.519 1.012 5.405-.485 17.754.67l-.671-.873c1.151-1.877 10.942 1.107 18.11.39l-2.588-.499c3.915-.643 10.942 2.554 14.873 2.788.857.163-1.353.262-2.549.383 10.293 1.107 1.334-1.144 9.004-1.409 1.414.616-1.823 1.568 3.339 1.683 2.572.5 14.972-2.002 22.015-.819-1.551-.476-3.093-.949.47-1.307 5.46-.17 14.761 1.797 19.693.298.694.13.956.255.985.373 4.174-.387 13.565-.643 16.079-1.455 3.857 3.016 25.949-1.466 25.856 1.314l12.839-.148-.336.283c8.207.185 11.108-.481 13.993-1.15 1.896.189.512.449.355.596 11.991.561 13.184.442 23.236-.942l1.046.901c2.726-.524 17.336 1.414 29.097.362-.115.103-.358.277-1.292.404 13.231-1.059 31.678 2.503 36.526-.782 0 0 .546-.051 1.364-.127.409-.038.887-.082 1.398-.13.222-.017.628-.068.944-.107.338-.034.68-.091 1.021-.179 1.363-.286 2.671-.856 3.546-1.441.885-.566 1.393-1.048 1.393-1.049-1.444 1.09-2.728 1.457-3.6 1.655-.886.204-1.423.159-1.693.137-.542-.076-.056-.334.608-.639.671-.315 1.487-.808 1.793-1.152.314-.334.161-.438-.995-.169 1.067-.378 2.237-.959 3.208-1.739.981-.767 1.73-1.717 2.221-2.459.513-.735.757-1.269.896-1.185.086.062.112.779-.614 2.21 0 0-.161.193-.322.387-.157.193-.35.358-.35.358-.032.71.703.351 1.545-.955.817-1.286 1.486-3.607 1.202-5.893-.029-.273-.06-.595-.095-.831l-.106-.689c-.069-.459-.139-.912-.205-1.352-.132-.881-.248-1.709-.328-2.421-.16-1.424-.176-2.381.124-2.356-3.91-21.883-6.707-43.389-10.22-63.913l-.898 2.593-1.176-7.169c-.022-1.931.585-2.699 1.424 2.414.274-2.814-2.118-8.452-2.43-8.547-1.215-10.087 2.212 3.637 1.707.565l-.825-4.145.011.965c-1.125-3.28-1.746-3.48-2.753-9.626-.416-3.928.461-2.133.244-3.67.095-.007.048-.531-.372-2.351l-1.463-9.033-.406 3.785c-1.208-3.906-1.427-8.485-1.873-4.121.093-.803.081-1.932-.012-3.301-.046-.685-.112-1.43-.196-2.223-.044-.396-.09-.806-.137-1.227-.022-.19-.045-.385-.067-.581l.015-.095c.069-.513.011-1.094-.084-1.658-.19-1.128-.53-2.188-.295-2.497-.891-.646-1.012-1.415-1.087-2.382-.174.274-1.313.619-1.314-.226 2.454-.12.78-1.684 2.394-2.648-1.043.792-.69-2.281-2.155-1.067.074-.719.892-.199 1.366-.817-1.216-1.465-.022-3.693-.688-5.651-.32.023-.744.445-1.289.096l1.391-1.339c-.224-.37-1.884-.048-.916-.965-.247.148-.621.372-.768.123.847-4.212-2.667-7.837-.479-12.346-.517.649-.641.298-.735-.112-.1.295-.78.131-1.198.258l.894-1.884c-1.239-.098-.395-1.783-1.559-1.76l.297.495c-1.462-.472-2.802 1.508-4.537 1.705 1.659.524-1.89 2.478.516 3.395-.301.347-.597-.147-.968.075.794.2 1.017.57.814 1.363l-.196-.051c.541 2.035-.03 3.048-.108 5.455l.82-.321c-.026.52-.274.671-.446.941 1.388.348-.173-1.414 1.339-1.141-1.612.964.588 3.523-1.297 4.314.124.77.944-.397 1.066.372l-.496.297.719.074c-.025.522-.645.893-1.092.99.032-.132-.187-.325-.248-.449-.512.762.535 1.803.37 2.063l.199-.795c.863 2.008.612 4.688 2.047 6.523l.374-.224c1.011 1.416-.224 1.314.415 2.951l-.105-.045c.458.27.738.688.774 1.16-.544-.346-.771.966-1.389.495 1.089 1.536.77.72 2.453 1.566l-.62.371c.667.272.99.248 1.31 1.065-.691-.596-.918.718-1.809.071-.571 1.017-.089 1.612.288 2.103.188.245.351.464.342.696-.004.115-.051.234-.159.361-.027.032-.058.064-.093.098l-.056.05-.02.289c-.031.388-.08.775-.148 1.166.717 1.39 1.018 1.381 1.082.636.032-.372.004-.928-.061-1.585-.018-.164-.036-.335-.055-.511l-.016-.132.004-.02.006-.04c.007-.054.01-.109.01-.164 0-.443-.189-.899.048-.705.267-.243.641-.135.936.108.148.121.276.276.362.438.021.04.04.081.056.122.055.28.109.558.162.828.107.586.196 1.146.261 1.651.674 4.097-1.138 7.365.694 17.646-.17-1.025-.321-1.07-.491-2.093.203 3.933 1.953 7.432 2.017 12.288 1.575 2.452 1.008 6.143 2.56 6.656l-1.977-9.379c1.306 5.285 3.843 10.011 4.578 18.964-.406-.637-1.241-3.192-1.767-4.957.032 2.65 1.146 4.913 1.182 7.66-1.554-.514-2.313-11.414-4.397-16.956-.116 2.871 2.924 10.661.882 8.051 2.68 3.798 1.525 10.179 4.236 16.884l-.932-.311c.327 1.079 1.127 3.293 1.461 5.326l-1.745-3.481c1.927 5.476 1.077 11.018 2.535 16.337-2.007-11.321.58-2.722.364-7.619 3.58 13.771-.821 8.424 2.32 23.992-.49-2.096-.878-8.038.095-4.796.345 3.008.706 6.997.579 8.902 1.987 10.332.597-1.744 1.891 2.576-.42 3.71 1.312 5.015 2.438 9.499l-.859.184c.754 5.952 1.342 6.656 1.889 7.216.274.28.537.523.807 1.369.077.237.116.411.158.626.055.22.085.474.077.764.01.579-.078 1.331-.477 2.134 0 0-.021-.82-.277-1.546-.099-.36-.292-.713-.405-.957-.146-.245-.244-.408-.244-.408l.11.518c.013.151.033.329.062.521 0 .187-.001.385-.001.583-.031.388-.093.769-.178 1.04-.084.271-.146.451-.156.445 0 0-.035-.062-.087-.153a6.2007 6.2007 0 00-.232-.333c-.173-.232-.356-.427-.356-.427-.136 1.336-.931 2.098-1.875 2.441-.5.161-1.021.23-1.713.2-1.117-.053-2.361-.11-3.86-.181 1.395.619-.784 1.594-6.093 1.621-3.621-.521 2.027-.835-5.499-.709 1.699-.55 3.561-1.239 6.836-.43.335-.287 1.676-.552 2.021-.834-3.899-.6-9.801-.137-12.525-.129 1.049.032 2.303.08 2.945.205l-10.91 1.217c-1.717-.33-.354-.595.995-.854-2.21.095-3.739.498-6.988.573.841-.714.64-1.45 5.238-1.786l-10.395.792c-.694-.311-5.335-.853-3.985-1.115-5.764-.42-14.138 1.385-21.778.831-.396.138-1.193.271-2.818.373-7.18-.161-13.542-1.037-22.053-.059l-4.83-1.279c-6.665.29 6.538 1.611-4.561 2.094-7.859.408-2.934-1.091-5.69-1.447-3.908.645-10.702 1.957-17.921.915 2.386-.232 4.261-.043 6.493-.138zm-82.21.567c1.593-.184 4.769-.752 5.933-.234-1.814 1.005-3.218.524-5.933.234zm-117.492-4.898c.196.975.098 2.329.586 3.924-.653-.979-.949-2.429-.586-3.924zm212.779-167.351c-.066.014-.115.024-.169.043-3.553-.343-2.294-.208.169-.043zm7.379.381c.742-.123.691-.245.378-.367-.515.222-2.172.237-4.059.175.525.23 1.478.389 3.681.192zm89.58 67.402l.021 1.454c-.806-3.151-.425-2.296-.021-1.454z"/>
    <path d="M101.106 425.637c.451.148.576.313.681.478.628-.148.64-.319-.681-.478zM345.245 423.695l.25.011c.138-.053.211-.106.253-.158l-.503.147zM200.277 260.3c-1.52-.126-2.367-.287-2.93-.453-.083.215.608.396 2.93.453zM353.676 251.364l-4.728.228c2.287-.043 3.103.148 4.258.288-.105-.205-1.008-.502.47-.516zM371.82 256.797c.096-.107.203-.012.298-.121l-.025-.408c-.409.027-.696.356-.273.529zM358.052 254.281c.374.739 3.339.488 6.649.352-.198.002-.387.009-.586 0 .976-1.035-2.552-.693-6.063-.352zM365.469 254.607c.51-.012 1.025-.023 1.539-.035h.766l.359.006.052.011c.014-.104.01-.161-.008-.187a.0376.0376 0 00-.036-.017c-.089.005-.194.011-.313.019-.588.042-1.449.15-2.359.203zM323.934 252.366c1.57.19.984-.944 1.874-.644 1.753-.94-10.469 1.138-1.874.644zM360.731 256.714l-1.186-.911-1.855.735zM334.591 256.045l5.29.252c-.08-.153.592-.243 1.417-.311-3.259-.03-6.832-.211-6.707.059zM341.298 255.986c1.698.019 3.313-.001 4.257-.151-.918.01-2.895.04-4.257.151zM353.5 256.988l-1.564-.19-3.736-.067zM277.722 255.869l-5.773.261c-.588.313.985.504 3.135.379 1.381-.217 3.523-.338 2.638-.64zM295.183 258.366c-1.562-.189-1.667-.393-2.546-.692l-.177 1.13 2.723-.438zM278.346 258.63c-.576.314-8.38.9-1.063.829.586-.311 6.368-.571 1.063-.829zM191.35 257.2l1.468-.014-.211-1.853zM124.145 267.31c.3-.852.531-1.337.622-1.663.088-.327.02-.5-.031-.652-.058-.157-.117-.304.003-.609.154-.28.473-.766 1.352-1.345.124-.268.018-.28-.216-.157-.117.062-.267.154-.434.266-.153.126-.322.267-.492.407-.652.59-1.182 1.303-1.028.709-.635 1.353-.798 2.368-.759 2.891.006.305.059.621.211.624.076.014.176-.024.304-.118.126-.077.29-.3.468-.353zM123.92 264.265c.095-.22.201-.445.333-.671.117-.234.249-.474.404-.712-.525.735-.664 1.134-.737 1.383zM395.881 267.461l.276-.669-.546.496zM394.325 266.542l1.139-.346-1.116-.177c.075.127.221.374-.023.523zM199.687 422.344l-.336.285c.681.307 1.711.33 3.774.379l-3.438-.664zM259.354 423.229l-1.027-.025 1.919 1.069zM309.433 421.866c-2.044-.045-4.446.194-6.5.148 4.456-.193 7.052 1.184 6.5-.148z"/>
  </g>
  <g fill="#202020">
    <path d="M255.44 84.439c-.256-.073-.165.692-.203.828.424-.157.194-1.026.203-.828zM259.772 82.864l-.095.304.687-.711zM263.801 83.253c-.232-1.336-1.48.007-2.152-.485l-.093-.304-.414 1.018c.879-.121 2.087-.678 2.659-.229zM265.519 86.303c-.051-.516.512-.375-.456-.217.038.06.047.094.068.137.084.004.198.019.388.08zM265.131 86.223c-.411-.015.204.454 0 0zM267.045 86.25l-.607.35c.062.314.519.464.308.647.579-.148.525-.459.299-.997zM267.72 85.407l-.313.138c.027.132.092.187.313-.138zM266.747 85.836l.659-.292c-.04-.221.022-.637-.297.095.116-.37-.066-.027-.362.197zM266.445 85.582c-.254-.333-.622-.58-.006-.925-1.07-.009-1.046.924.006.925zM264.171 81.946l-.382-.432-.418.385c.209-.191.776.454.8.047zM270.201 87.567c.095-.262-.014-.759.023-1.114l-.459.219c.161.233.502.49.436.895zM270.225 86.454l.693-.327c-.515-.176-.66.021-.693.327zM268.078 84.005l-1.168.805 1.363-.784zM272.394 88.124l-.483.528.818-.772zM273.866 88.427c-.383.442.077.954-.263 1.196.411.018.87-.325 1.29-.631-.385.128-.705-.023-1.027-.565zM275.574 88.574c-.194.063-.43.238-.681.418.206-.068.427-.194.681-.418zM271.892 86.491c.005.173-.013.618.269.871l-.039-.807c-.071-.019-.15-.041-.23-.064z"/>
    <path d="M272.119 86.53l.002.026c.248.072.417.134.487.166-.06-.027-.207-.088-.489-.192zM271.834 86.475c.021.006.037.011.058.017-.004-.08-.011-.108-.058-.017zM269.53 84.99c.437-.344 1.283-.627.702-1.442-.366.461-.037.925-.702 1.442zM271.775 85.463l-.595-.319c-.034.203.012.521-.21.691l.805-.372zM272.146 85.296l-.371.167.22.119zM274.741 87.573c.361-.249.664-.194 1.01-.153-.309-.246-.653-.428-1.003-.526-.118.221-.392.599-.007.679zM273.489 86.994c.022-.008.051-.019.071-.026-.018-.074-.041-.103-.071.026zM278.953 88.51l-.003-.15c-.02.042-.037.079-.058.122l.061.028z"/>
    <path d="M274.729 86.739c-.226-.22-.439-.083-.656.105.221-.019.446-.008.675.051.054-.101.078-.169-.019-.156zM276.566 88.527c-.084-.2-.194-.383-.317-.559.058.28.207.736.317.559zM273.593 87.2c-.017.008-.032.019-.049.022.042.186.054.104.049-.022z"/>
    <path d="M273.593 87.2c.166-.069.325-.224.48-.356-.179.013-.352.05-.513.124.019.062.03.152.033.232zM281.693 84.225c-.314.661-1.248.978-1.617.044-.806.297-1.178 2.675-1.126 4.091.128-.29.225-.566.975-.726-.062-.466-1.04-1.363-.297-1.793.953-.053.583.496.843 1.001-.021-.974 1.506-.811 1.817-2.108l-.901.144c.058-.197.443-.398.306-.653zM277.824 87.902h-.277c.242.215.352.556.531 1.212.525-.194.704-.417.814-.632l-1.188-.507.12-.073z"/>
    <path d="M276.431 87.528c.432-.682 1.147-.792 1.04-1.724-.767-.202-.727.445-1.271.62 1.25.219-.471.301.25 1.015-.272.049-.492.017-.698-.019.184.163.352.345.498.548-.005-.022-.008-.037-.012-.055h-.007l.005-.011c-.021-.11-.019-.173.021-.099.007-.008.022-.007.029-.007.042-.102.093-.185.144-.264.291.27-.009.212-.144.264-.016.035-.036.067-.05.106l.002.011 1.31-.011c-.216-.187-.536-.272-1.117-.374zM271.269 82.056c.024.077.011.131.001.187.103-.074.15-.131-.001-.187zM271.688 82.639c-.117.085-.264.374-.545.226-.209-.29.083-.367.126-.622-.229.161-.754.404-.272.906l.113-.083c.453.381.87 1.481.755 1.565.02-.719.008-1.239-.177-1.992zM274.233 84.863l1.133-.078-.339-.802-.085.4c-.545-.321-.552.198-.709.48zM278.929 88.919l-.411.729.957-.879zM280.207 89.318l-.308.654.486-.277zM197.469 205.1l-.893-.718c.398.363.674.576.893.718zM203.195 210.92l.389-.132c-.417-.101-.631-.098-.389.132zM319.558 177.601c-1.167 1.122-2.702 2.19-1.911 2.341l.902-.099c.24-.999.605-1.686 1.009-2.242zM264.613 226.141c.157.059.321.12.483.181.336-.316.65-.613.935-.88-.427.21-.911.449-1.418.699zM263.889 229.526s-.545-.047-1.089-.132l-1.085-.172c.491.132 1.193.282 2.174.304zM177.74 165.492s-.259-.296-.495-.599c-.242-.304-.483-.608-.483-.608.27 2.086.582 1.1.978 1.207zM313.7 116.715c.442 1.21.773 2.167 1.192 2.936-.343-1.533-.401-2.957-1.192-2.936zM205.669 201.593c-.528-.346-.827-.427-.942-.293.539.369.894.524.942.293zM316.591 122.84c-.029-.231-.093-.442-.136-.673-.539-.755-1.03-1.533-1.563-2.516.288 1.12.644 2.349 1.699 3.189zM236.926 77.686c.043.026.089.033.131.067-.015-.107-.064-.101-.131-.067zM251.498 83.568c-.124.059-.33.075-.523.101.098.046.255.029.523-.101zM294.478 97.365c-.79-.498-.171-.014 0 0zM292.319 92.2c.22.036.412.025.528-.117-.167.118-.344.148-.528.117zM324.803 129.855c.009.028.016.051.025.083.051-.332.039-.273-.025-.083zM293.531 96.259c.24.273.519.583.846.882-.124-.16-.371-.441-.846-.882zM293.48 96.672c-.247-.207-.452-.356-.643-.505-.171.048-.127.169.643.505z"/>
    <path d="M295.561 98.083c-.442-.299-.826-.618-1.184-.942.118.15.155.231.101.224.227.151.548.364 1.083.718zM203.151 98.415c.066-.029.134-.072.21-.099.531-.957.235-.603-.21.099zM313.266 203.806c.026-.042.027-.076.05-.116-.039.031-.088.071-.123.099l.073.017zM311.146 206.993c.411-1.839 1.104-2.408 2.046-3.204 0 0-.63-.142-1.26-.285l-1.248-.298s.036.236.091.591c.044.352.104.821.162 1.29.105.953.209 1.906.209 1.906z"/>
    <path d="M186.169 189.167l.3 1.36c.179.671.359 1.342.359 1.342-1.349-1.114-2.114-2.326-2.594-2.853-.465-.535-.582-.437-.436.944.595-.195 1.207.292 1.831 1.108.662.797 1.346 1.924 2.032 3.05.727 1.101 1.473 2.19 2.165 2.942.711.739 1.398 1.114 1.951.836l.602 1.742c-.275-.427-.439-.408-.711-.831.508 1.765 1.294 1.996 2.193 2.255.921.25 1.913.565 3.223 2.308.85 1.271 1.289 2.322.385 1.729 0 0 .169.135.422.338.263.193.613.45.964.708.697.51 1.395 1.02 1.395 1.02.648.749.179.878-.472.129 0 0 .234.227.584.567.352.338.85.76 1.334 1.194.487.431.975.861 1.341 1.184.36.328.623.521.623.521l-.077.029c.822.2 2.473.837 3.243 1.167.792 1.089-.674-.21-.606.229 0 0 .16.086.399.216.245.122.572.284.899.445.65.321 1.301.642 1.301.642.535 1.216-1.739.28-3.209-1.075.227 1.828.846 2.061 1.791 2.46.951.414 2.29.88 4.275 3.152l-2.424-1.332c.316 1.077.989 1.856 1.869 2.634.9.752 1.952 1.582 3.097 2.767-.225-.365-1.267-1.708-1.862-2.762-.596-1.061-.74-1.855.743-1.269.647.614 1.556 1.381 3.283 1.768-.42.742 1.088 1.459 2.963 2.34l-.667.966c2.182.724 2.261.153 3.688.216 2.214 1.123 2.328 2.183 2.6 3.093 3.696 1.658-2.033-2.356 2.466-.817 2.941 1.601 5.365 1.88 9.336 2.181 2.153.91-.562.602.166 1.112l2.207-.444c.482.134.267.377.158.499 1.761-.014.378-1.103 3.063-.936.231-.285.661-.252 1.233-.056.575.181 1.301.494 2.115.826 1.619.698 3.645 1.232 5.343.639.801.389-.434.684-.209 1.151 4.632-.79 3.985-.548 7.665-1.931 0 0 .795.176 1.596.292.806.13 1.611.261 1.611.261-1.202-.347-1.063-.835-.337-1.366.363-.266.874-.541 1.444-.815.566-.304 1.192-.609 1.791-.899-.847-.319-1.556-.597-2.023-.722 0 0 .966-.278 1.932-.557.479-.14.958-.279 1.317-.384.359-.099.595-.187.595-.187.496.098.177.585-.402 1.15.258-.125.496-.266.68-.389 1.471.175.87.964-.063 1.791-.526-.156-1.049-.343-1.552-.522-.894.826-1.757 1.725-1.472 2.375.253-.167.755-.347 1.312-.483-.241.225-.391.416-.253.516.155.104.557-.206 1.188-.586l1.131 1.161.149-.55s1.387-.042 2.773-.083c.699-.009 1.392-.07 1.913-.114l.87-.07c3.561-2.212 6.241-4.881 11.513-7.706-.997 1.461.309 1.563.683 2.634-1.018-.236-2.069.313-3.275 1.052-1.217.692-2.604 1.563-4.184 1.92 1.646-.369 1.454.223 1.103.552 0 0 1.285-.721 2.571-1.443.643-.345 1.252-.769 1.72-1.051l.772-.487c.218.893 1.41.225 2.935-.076-.888-.599-.03-1.318 1.267-2.066 1.276-.791 3.003-1.646 3.875-2.458.426.466.251 1.313-2.376 2.471 1.711-.117 2.407-1.032 2.991-2.041.595-1.007 1.167-1.954 2.758-2.278-.569.391-.94.493-1.019.894 1.107-1.276 4.611-3.087 4.143-2.146 0 0-.14.103-.279.206-.144.097-.287.194-.287.194.984-.603 2.185-1.431 3.429-2.348 1.195-.98 2.493-1.979 3.54-3.077 2.181-2.103 3.617-4.237 3.333-4.991.176.108.881 1.738.892 2.16 0 0 .157-.587.354-1.477.187-.902.421-2.092.635-3.259.222-1.162.349-2.367.468-3.231l.175-1.444c.285.683 1.474 1.038 2.362 1.603.892.573 1.496 1.39.511 3.094.434-.357.919-.761 1.442-1.335.496-.596 1.024-1.368 1.56-2.43-.623.488-2.663.278-2.136-.59 1.443-.628 1.901-.904 2.359-1.269.467-.365.959-.799 2.484-1.873-.875.768-1.872-1.432-.906-2.853.115.399 1.815.981 1.645 1.649l.326-2.408c.104-1.206.207-2.411.207-2.411-.221 1.123 1.403 1.04 2.411.446-.542.233 1.853-3.391 2.155-4.572 0 0-.29.386-.615.751-.321.367-.642.733-.642.733 2.461-4.41-.499-5.615 1.238-10.035.219.676 1.979 2.269 3.036-.048-.16-.353-.421-.93-.751-1.66-.337-.728-.743-1.606-1.111-2.552-.708-1.89-1.462-4.076-1.433-6.134l.726-.657s-.03-.802-.061-1.603c-.014-.795-.103-1.594-.103-1.594.342.538.728 1.311 1.115 2.236.386.924.839 2.012 1.193 3.142.35 1.128.677 2.313.946 3.44.231 1.117.393 2.171.482 3.041.959-1.685.853-.304 1.517-3.067.387-.422.506.005.508.648-.017.638-.18 1.483-.277 1.896 0 0 .137-.397.34-.992.22-.592.442-1.4.676-2.207.232-.809.465-1.617.64-2.224.146-.613.243-1.022.243-1.022-.628.03-.703-1.284-.76-2.579-.069-1.299-.196-2.593-.708-2.531 0 0 .022.451.057 1.127.05.681.041 1.581.04 2.489-.006.907.008 1.824-.019 2.508-.035.684-.059 1.139-.059 1.139-.649.004-1.193-1.187-1.611-2.913-.2-.863-.314-1.852-.349-2.901-.067-1.056-.026-2.168.169-3.281.624-1.101 2.06 1.089 2.473 1.056-.28-.652-.426-4.458-.083-4.862l.504 2.011c.332-1.281.014-2.37-.295-3.498-.307-1.133-.442-2.297.073-3.855.052-1.058 1.5-3.283.729-3.435-1.28 1.862-5.639 2.275-6.698 1.254.058-.177.274-1.487.579-2.933.328-1.446.542-3.015.833-3.643.867-1.855 2.91 2.21 3.66.651-.34-.025-.87-.93-1.053-1.307.118-1.141 1.138.306.572-2.073-1.293-.19-.765-4.868-1.233-.946-.739-2.248-.261-2.495-.913-5.192-.283.527-1.089.085-1.977-.711-.891-.799-1.769-1.973-2.328-2.98.343.029.57-.583.667-.881-1.434-4.458-1.915-7.033-3.942-10.966.107-.511-.638-2.558.278-2.018-.515-.455-1.174-.757-1.883-1.931-.44-2.856 1.694 2.577 1.774.166-.683.186-2.7-2.579-4.181-3.932-.567 1.111 2.289 3.855 3.621 5.383-.667.38-1.774.031-3.053-.823-1.345-.816-2.817-2.166-4.423-3.738-1.16-1.329-1.225-1.755-1.018-1.937.201-.177.647-.078.37-.254-1.931-2.741-3.447-3.329-4.673-3.914-.633-.278-1.238-.523-1.853-1.004-.614-.483-1.246-1.189-2.051-2.31-.896-2.207 1.265-1.485 1.403-2.328 1.199.874 1.905 1.774 2.444 2.653.545.875 1.011 1.647 1.656 2.396 0 0-.077-.134-.194-.336-.115-.204-.274-.471-.446-.728-.337-.522-.675-1.043-.675-1.043.436.23 1.057.645 1.599 1.157.537.518 1.029 1.1 1.272 1.598-.146-.492-.663-1.31-1.456-2.283-.83-.938-1.832-2.129-3.045-3.259-2.326-2.371-5.232-4.716-7.107-6.642-.968-.285-2.476-.941-2.079-.177l1.432.851c.758 1.507-3.16-.908-1.684.594-1.049-.388-2.168-.802-3.378-1.249-.592-.239-1.182-.525-1.776-.864-.609-.317-1.215-.699-1.817-1.174l.048-1.26c-.097.321 1.405 1.575 2.326 1.712-.681-.107-1.502-1.013-2.417-1.836-.918-.809-1.966-1.461-2.91-1.135l1.55 1.662c-2.196-.519-5.038-.597-7.339-1.885.686 1.461.637.083 1.807 2.033-.411-1.056 1.119-.378 2.516.305 1.376.714 2.66 1.365 1.89.025.521 1.089 1.157 1.632 1.868 2.202.709.563 1.518 1.116 2.202 2.34.134-.352-.363-1.068 1.378.262.143-.037.414-.024.584-.011.05.046.067.063.109.103-.027-.037-.05-.065-.077-.101.11.005.124 0-.03-.037-.351-.415-.603-.807-.638-1.073.694-.065 1.79.392 2.826.967 1.056.55 2.083 1.168 2.682 1.385.94.962-.696-.01-.366.75l1.821.598c-.348.736 1.766 3.317-.856 1.666l2.058 1.831c.889 1.438 2.365 3.066 3.533 3.843.379.531 1.115.958 1.587 1.229.463.278.685.366.076.151 0 0 .803.733 1.605 1.467.409.363.805.74 1.086 1.036.288.291.48.484.48.484l-.135.158c.643.854 1.375 1.658 2.078 2.513.724.84 1.485 1.681 2.155 2.613.696.914 1.358 1.88 1.867 2.957.265.532.507 1.083.719 1.653.185.585.338 1.19.452 1.816.859 1.171 1.703 2.436 2.447 4.74l-.482.704c.955 1.612 1.223 5.377 2.127 5.911-.321.613-.358 1.45-.223 2.41.142.959.351 2.072.673 3.201.313 1.131.571 2.317.846 3.406.251 1.093.372 2.115.401 2.914l.933.015c.192 2.215.609 4.315 1.02 7.099l.812-.182c.397 1.211.144 2.788-.098 4.513-.357 1.723-.748 3.593-.989 5.483-.277-.298-.074-1.24.2-1.9-.605 1.081-.889 2.207-1.027 3.369-.192 1.151-.205 2.344-.233 3.535-.074 1.179-.112 2.367-.308 3.484-.232 1.107-.581 2.153-1.186 3.045-.048 1.063-.385 1.746-.81 2.36a.8478.8478 0 00.042-.255c-.044.096-.095.244-.146.396-.269.386-.582.768-.896 1.187.345-.327.649-.653.827-.97-.229.759-.609 1.899-.844 3.083l-.992.13c-.028.091-.051.165-.081.259-.77.914-.003 1.012.859.707-.115.602-.184 1.173-.167 1.651-1.633.273-.944 3.041-2.873 3.497.159.536-.487 1.88-1.01 3.289-.561 1.385-1.087 2.79-.611 3.498-.189-.076-.462.17-.12-.387-.869 1.046-1.831 2-2.167 3.255l-1.232-.212-.637 3.234c-1.694.942-2.461 1.206-1.971-.663-.874 2.018-1.351 2.771-1.813 3.406-.468.64-.813 1.271-1.681 3l-.375-.637c-.459.457-.897 1.218-1.35 1.885-.451.667-.956 1.189-1.443 1.229-1.532.462-4.311 2.699-7.768 4.978-3.445 2.278-7.641 4.505-11.282 5.341 1.07.663.208.846-.912.954-1.116.119-2.427.253-2.278 1.079-.577-.307-1.639-.268-.666-1.05-1.683.811-3.059 1.127-4.294 1.351-1.23.256-2.269.603-3.373 1.542-.53-.395.605-.895.166-1.099-.262.171-1.048.689-1.487.484-.43-.208.437-.534.951-.877-1.807.486-2.744 1.057-3.24 1.726-.492.676-.534 1.445-.554 2.185-2.062-.321-2.999-.185-4.323.969-.745-.412-1.913-.779.459-1.21-.673.087-2.751.04-4.652.156-1.909.019-3.664.225-3.739.773-.424-.307-1.898-.135-2.265-.01-1.529-.045-2.351-.229-3.172-.289-.821-.075-1.635-.134-3.127-.288l.804.294c-1.349 1.231-2.547.04-4.958-.257l.095-.129c-1.333-.474-2.128-.775-2.681-.924-.552-.148-.854-.16-1.155-.176-.599-.018-1.204-.083-3.668-1.395l.037.917c-.519.848-1.632.208-2.974-.707-1.365-.867-2.877-2.138-4.497-2.39 0 0 .212.235.436.452.222.221.443.443.443.443-.949-.001-1.818-1.127-2.605-2.297-.802-1.152-1.449-2.502-2.151-2.979-.252-.313.639.033 1.149.158-1.706-1.496-1.959-1.3-2.181-.907-.222.4-.396 1.025-1.917.303-.221-.838 1.456-.973-.398-2.169-.342-.493-1.945-.918-3.725-1.604-.872-.366-1.79-.791-2.603-1.293-.786-.537-1.462-1.156-1.876-1.854.227.782.474 1.579-.983.889-.991-.688-1.927-2.102-2.905-3.367-.953-1.301-1.989-2.424-3.252-2.707-.116-.31-.105-.479-.028-.569-1.587-1.001-4.406-4.015-5.718-4.419.33-.801-.025-1.687-.633-2.659-.631-.955-1.58-1.958-2.438-2.978-.436-.504-.883-.989-1.255-1.466-.362-.482-.678-.938-.904-1.349-.453-.823-.542-1.461.074-1.783 0 0-.674-1.23-1.347-2.46-.352-.609-.635-1.251-.87-1.723-.229-.474-.383-.79-.383-.79l.32.018c-.684-1.653-1.168-2.757-1.739-3.528-.566-.773-1.063-1.27-1.587-1.765-.09-.856.353-.358.512-.342-1.096-5.188-1.264-5.583-3.516-9.689l.806-.617c-.182-.271-.27-.895-.33-1.747 0-.855-.001-1.94-.001-3.147.01-1.203.07-2.525-.018-3.856-.014-1.336-.134-2.688-.407-3.976.104.051.263.158.406.563-.507-2.889.254-6.35 1.03-9.23.329-1.456.697-2.774.751-3.912.034-1.142-.121-2.083-.807-2.787 0 0 .019-.985.039-1.971.067-.984.135-1.969.135-1.969-.818 2.378-1.077 2.13-1.333 1.481-.227-.638-.38-1.668-.934-.719.185-1.002.781-2.201 1.265-2.825.524-.614.881-.68.596.516l-.262.322c.349.34.667.14.963-.335.315-.47.634-1.21.937-1.98.572-1.551 1.294-3.144 1.792-2.871 1.767-4.56 4.225-8.764 7.024-12.568 2.802-3.812 5.939-7.229 9.149-10.405l-1.676-.17s.555-.582 1.148-1.124c.594-.54 1.189-1.08 1.189-1.08.823-.357 1.52-.01-.15 1.505.694-.139 1.262-.899 1.652-1.67.403-.754.645-1.5.571-1.633 3.713-2.503-.293 2.308.765 1.432l1.315-1.271-.412.151c.759-1.401.548-1.89 2.731-3.545 1.57-.788 1.206.15 1.787-.199.052.079.262-.016.864-.568 0 0 .206-.138.516-.345.318-.193.743-.451 1.167-.708.85-.512 1.7-1.023 1.7-1.023l-1.902-.028c1.206-1.433 3.286-1.909 1.041-2.005.419.024.942-.066 1.539-.242.298-.088.615-.198.947-.326.165-.066.334-.135.508-.205.079-.032.191-.085.244-.101l.093-.013c.498-.078 1.015-.294 1.505-.542.976-.502 1.86-1.111 2.22-.943.365-1.006 1.066-1.308 1.952-1.607-.296-.104-.899-1.137-.089-1.331.668 2.356 1.792.432 3.024 1.832-.958-.887 2.002-1.078.592-2.31.705-.03.351.845 1.021 1.224.589-.697 1.472-.834 2.406-.907.947-.042 1.951.007 2.838-.416-.052-.317-.497-.7-.215-1.275l.702.632.695.655c.33-.236-.095-1.874.852-.952-.158-.24-.398-.601-.167-.759 2.044.292 3.89-.338 5.82-.809.967-.196 1.947-.353 2.942-.308.997.068 2.012.385 3.014 1.037-.56-.58-.219-.667.18-.721-.269-.128-.042-.79-.12-1.219 0 0 .426.272.852.543l.84.582c.256-1.21 1.739-.125 1.894-1.281l-.519.221c.687-1.376-1.047-2.994-1.012-4.739-.389.783-.944.224-1.584-.247-.634-.442-1.358-.794-1.954.36-.328-.332.213-.58.022-.971-.292.772-.688.958-1.492.684l.07-.191c-1.079.176-1.86.173-2.7.043-.838-.114-1.732-.334-2.994-.339l.323.818c-.539-.021-.695-.268-.979-.437-.368 1.394 1.478-.188 1.172 1.33-.99-1.615-3.633.62-4.51-1.177-.804.175.452.92-.346 1.092l-.333-.477-.042.723c-.544.008-.97-.586-1.101-1.024.141.023.333-.208.461-.278-.845-.476-1.874.687-2.152.562l.849.105c-1.017.551-2.226.837-3.406 1.204-1.163.416-2.299.903-3.129 1.764l.292.331c-1.263 1.27-1.376.051-2.924 1.027l.024-.113c-.179.513-.55.857-1.01 1.02.228-.625-1.144-.5-.81-1.229-1.302 1.474-.557.948-.984 2.8l-.528-.501c-.097.724-.002.999-.705 1.559.392-.851-.958-.665-.564-1.726-1.165-.234-1.632.424-2.006.938-.188.258-.356.481-.589.546-.117.033-.25.025-.41-.037-.04-.015-.082-.034-.125-.057l-.067-.037-.15.005c-.204.005-.415-.006-.636-.035-.396.766-.263 1.033.128 1.029.351.02 1.229-.393 1.265-.354.438-.139.831-.461.71-.175.321.178.325.568.179.923-.073.178-.185.347-.315.478a.9432.9432 0 01-.101.09c-.115.072-.228.143-.338.212-.239.142-.471.267-.688.364-1.669.929-4.129-.473-8.238 2.47.412-.283.358-.417.769-.699-.9.354-1.573 1.007-2.274 1.692-.692.701-1.438 1.397-2.59 1.812-.266 1.692-2.313 1.908-1.639 3.223 0 0 .803-.806 1.606-1.611.397-.41.812-.801 1.132-1.083.316-.288.526-.48.526-.48-.915.927-1.518 2.15-2.361 3.367-.431.6-.9 1.224-1.473 1.854-.574.629-1.301 1.211-2.171 1.821.002-.454.651-1.577 1.129-2.333-.595.273-.979.737-1.366 1.202-.378.475-.74.966-1.343 1.278-.812-1.308 3.663-4.161 5.12-6.746-.71.211-1.549 1.283-2.193 2.03-.614.78-1.06 1.236-1.081.178-.049 1.442-1.016 2.198-2.067 3.146-1.057.932-2.313 1.957-2.828 3.755l-.505-.736c-.244.508-.693 1.589-1.313 2.357 0 0 .049-.537.134-1.053l.164-1.045c-1.064 2.707-4.033 3.677-5.163 6.207 3.245-4.588 1.557-.436 3.463-1.943-1.541 3.075-2.537 3.542-3.669 4.108-1.135.551-2.469 1.158-4.202 4.662.421-.982 2.417-3.163 1.944-1.54-.442.59-.978 1.266-1.509 1.868-.5.619-1 1.164-1.41 1.466-2.161 4.676 1.139-.312.635 1.875-1.69 1.11-.679 2.449-1.229 4.589l-.817-.322c-1.323 2.591-1.045 3.111-.717 3.555.317.446.646.803-.497 3.125l-.456-2.454s-.143.668-.286 1.337c-.146.666-.271 1.335-.272 1.335l-.785-.833c-.132 3.077-.585 3.876-1.492 6.665.785-.516 1.4.704 1.016 3.19-.805 1.613-.678-1.107-1.134 2.476-.455-.884-.937-1.898.127-3.314-.253-.212-.398-.903-.645-1.126-.462.877-.708 2.057-.864 3.174-.149 1.119-.133 2.186-.223 2.844.097-.504.222-1.106.385-1.399 0 0 .135 1.351.271 2.702.166 1.344.388 2.671.388 2.671-.391.799-.606.131-.815-.542.027 1.078.322 1.837.379 3.402-.675-.432-1.502-.358-1.653-2.638 0 0 .074 1.289.265 2.568.166 1.273.333 2.546.333 2.546-.327.331-.795 2.621-1.08 1.965-.087.714-.032 1.508.092 2.35.164.84.4 1.728.635 2.637.219.912.482 1.841.698 2.776.212.935.315 1.883.335 2.826.17.17.37.532.609 1.294.419 3.453.351 6.753 2.529 10.44l-.449 2.663c1.395 2.969.399-3.519 2.752 1.352 1.778 3.368-.494 1.739-.293 3.117 1.381 1.528 3.892 3.896 4.747 7.413-.793-.876-1.078-1.762-1.642-2.691zm26.874 28.84c-.757-.24-2.344-.665-2.504-1.421 1.298-.319 1.546.482 2.504 1.421zm57.396 8.897c-.488.388-1.373.397-2.383.24.681-.195 1.467-.299 2.383-.24zm32.419-123.582c.031.009.053.017.083.019.872 1.303.573.832-.083-.019zm-2.104-2.433c-.324-.118-.387-.01-.364.171.312-.022.868.435 1.441 1.02-.013-.323-.226-.711-1.077-1.191zm-85.685-4.628l-.645.177c1.013-1.03.82-.612.645-.177z"/>
    <path d="M264 229.13c-.23-.12-.308-.276-.375-.434-.279.185-.27.356.375.434zM177.929 165.711l-.011-.122c-.064-.058-.123-.085-.178-.097l.189.219zM331.34 142.493c-.033.742-.142 1.165-.272 1.452.218.013.356-.337.272-1.452zM286.043 92.749s.474.178.947.356c.477.174.944.368.944.368-.877-.426-1.104-.738-1.478-1.092-.053.202.152.64-.413.368zM279.013 83.885c-.125.071-.196-.054-.321.019l-.105.394c.392.105.77-.114.426-.413zM285.636 89.281c.168-.735-1.152-1.056-2.546-1.537.081.034.16.063.237.107-.798.775.744 1.098 2.309 1.43zM282.765 87.636a12.085 12.085 0 01-.65-.218l-.317-.125-.147-.065-.043-.029c-.051.092-.068.146-.063.176.009.031.011.026.169.065.257.056.653.096 1.051.196zM297.313 98.7c-.417-.57-.905.489-1.022.014-1.172.276 4.23 1.879 1.022-.014zM285.562 86.578l.112 1.051 1.082-.318zM295.644 92.95l-1.889-1.51c-.051.149-.355.061-.706-.083 1.23.825 2.492 1.848 2.595 1.593zM293.049 91.357c-.647-.417-1.302-.753-1.744-.841.362.204 1.161.61 1.744.841zM288.67 87.774l.552.497s.373.21.747.42c.375.207.731.445.731.445s-.489-.369-1.006-.693c-.512-.334-1.024-.669-1.024-.669zM313.969 110.904l.865.991c.217.249.434.497.596.684.156.191.26.319.26.319.408.05.18-.663-.503-1.386-.545-.391-1.208-1.113-1.218-.608zM310.86 103.077c.338.679.218.851.26 1.357l.904-.681-1.164-.676zM316.036 109.047c.405.027 3.035 2.716.963-.077-.413-.053-2.212-2.106-.963.077zM328.725 147.016l-.066-.674-1.838.266zM327.453 183.333c1.634-2.955-.753-1.15.827-3.76-.13-.869-1.286 2.129-1.362 1.248-.297 2.014-.93 2.901.535 2.512z"/>
    <path d="M326.918 180.821c.048-.322.088-.666.106-1.04-.101.573-.117.857-.106 1.04zM253.654 84.502l.58.372-.38-.613zM254.748 83.099l.144 1.178.346-1.078c-.133.055-.388.164-.49-.1zM216.954 223.14l.282-.167c-.146-.438-.576-.71-1.436-1.26l1.154 1.427zM194.822 203.81l.312.398.205-1.397zM180.925 183.257c.317.979 1.033 1.981 1.418 2.933-1.125-1.953-.273-3.694-1.418-2.933z"/>
  </g>
</svg>
